<?xml version="1.0" encoding="UTF-8"?>
<svg version="1.1" xmlns="http://www.w3.org/2000/svg" width="300" height="300">
<path d="M0 0 C99 0 198 0 300 0 C300 99 300 198 300 300 C201 300 102 300 0 300 C0 201 0 102 0 0 Z " fill="#0B0019" transform="translate(0,0)"/>
<path d="M0 0 C1.01964844 -0.01224609 2.03929687 -0.02449219 3.08984375 -0.03710938 C8.33957368 -0.04734942 12.5745925 0.18678056 17.5 2.1875 C19.43350693 2.66239644 21.371164 3.12069663 23.3125 3.5625 C28.73665633 4.90854371 33.52193175 6.6701354 38.5 9.1875 C40.01400391 9.92806641 40.01400391 9.92806641 41.55859375 10.68359375 C49.38718879 14.67626943 55.99217442 19.29451259 62.5 25.1875 C63.8921875 26.43853516 63.8921875 26.43853516 65.3125 27.71484375 C75.39665923 37.25277769 82.2877081 48.32223984 87.5 61.1875 C87.92539062 62.14269531 87.92539062 62.14269531 88.359375 63.1171875 C96.6041986 82.71967626 95.58689447 105.52112143 88.5 125.1875 C88.26571289 125.85434814 88.03142578 126.52119629 87.79003906 127.20825195 C83.45393973 139.21936289 77.12315332 149.75411751 68.5 159.1875 C67.75234375 160.02796875 67.0046875 160.8684375 66.234375 161.734375 C51.02050224 177.955789 27.90589972 189.05341223 5.55395508 190.2956543 C-20.03953696 191.01763536 -44.7934922 184.68482726 -63.8125 166.75 C-64.85384888 165.73413428 -65.89188149 164.71485236 -66.92578125 163.69140625 C-69.43276163 161.10050459 -69.43276163 161.10050459 -72.5 159.1875 C-72.5 158.5275 -72.5 157.8675 -72.5 157.1875 C-73.799375 157.14625 -75.09875 157.105 -76.4375 157.0625 C-82.11525074 156.46768802 -86.17017482 153.79056965 -90.5 150.1875 C-90.5 149.8575 -90.5 149.5275 -90.5 149.1875 C-87.2 149.1875 -83.9 149.1875 -80.5 149.1875 C-80.99628906 148.27613281 -81.49257812 147.36476562 -82.00390625 146.42578125 C-86.16304859 138.5760308 -89.6085799 130.67671423 -92.4375 122.25 C-92.73148682 121.38737549 -93.02547363 120.52475098 -93.32836914 119.63598633 C-100.43050996 97.75718393 -96.84342991 72.66768168 -86.74951172 52.35424805 C-82.85070412 44.87756547 -78.21775527 38.41269472 -72.5 32.1875 C-72.05672363 31.69652832 -71.61344727 31.20555664 -71.15673828 30.69970703 C-56.56925451 14.69054019 -38.6072942 5.61798694 -17.5 1.1875 C-16.59121094 0.9915625 -15.68242187 0.795625 -14.74609375 0.59375 C-9.83318958 -0.02110203 -4.94632234 0.00312663 0 0 Z " fill="#C4AF97" transform="translate(151.5,54.8125)"/>
<path d="M0 0 C14.18917792 12.0802285 21.99458478 27.96113045 26.375 45.8125 C26.5507959 46.43334473 26.7265918 47.05418945 26.90771484 47.69384766 C30.67663052 64.78196169 26.94726534 85.37989402 19.375 100.8125 C18.859375 101.88242188 18.34375 102.95234375 17.8125 104.0546875 C6.99836145 125.3325064 -10.54241951 140.98930299 -32.95703125 149.00390625 C-49.70374681 154.38748859 -65.63911471 155.82226111 -82.625 150.8125 C-83.64335938 150.52246094 -84.66171875 150.23242188 -85.7109375 149.93359375 C-98.03182541 146.14864232 -110.00797236 139.61713081 -118.625 129.8125 C-118.625 129.1525 -118.625 128.4925 -118.625 127.8125 C-116.61328125 126.26953125 -116.61328125 126.26953125 -113.9375 124.625 C-113.06738281 124.07457031 -112.19726562 123.52414063 -111.30078125 122.95703125 C-108.09880984 121.58742888 -106.89413476 121.73638856 -103.625 122.8125 C-101.81900412 123.57090915 -100.02805198 124.36571127 -98.25 125.1875 C-76.66598819 134.22449524 -52.07371922 132.93390106 -30.65234375 124.18359375 C-18.40503142 118.63674649 -8.33107019 110.57975525 -1.625 98.8125 C-1.23570312 98.15507812 -0.84640625 97.49765625 -0.4453125 96.8203125 C5.76086209 85.54047694 6.2044897 71.20586359 2.75 59 C-3.59722284 40.90930912 -17.10609036 28.74069117 -34.0625 20.5 C-40.72559738 17.58185516 -47.58560395 15.60217696 -54.625 13.8125 C-55.21877441 13.6367041 -55.81254883 13.4609082 -56.42431641 13.27978516 C-76.85962438 8.94062613 -98.96329512 13.19033585 -116.625 23.8125 C-126.60304863 30.74768755 -133.60915403 38.77763888 -138.625 49.8125 C-138.955 49.8125 -139.285 49.8125 -139.625 49.8125 C-139.11773641 44.16371286 -138.01609334 39.3886346 -135.6875 34.1875 C-135.3795752 33.49873779 -135.07165039 32.80997559 -134.75439453 32.1003418 C-124.86042787 10.89377037 -106.32463614 -6.90294023 -84.40234375 -15.23046875 C-83.48582031 -15.54628906 -82.56929687 -15.86210938 -81.625 -16.1875 C-80.73941406 -16.49300781 -79.85382813 -16.79851562 -78.94140625 -17.11328125 C-51.01339291 -26.0825519 -22.13901095 -18.10589818 0 0 Z " fill="#FCCA02" transform="translate(207.625,83.1875)"/>
<path d="M0 0 C1.01964844 -0.01224609 2.03929687 -0.02449219 3.08984375 -0.03710938 C8.33957368 -0.04734942 12.5745925 0.18678056 17.5 2.1875 C19.43350693 2.66239644 21.371164 3.12069663 23.3125 3.5625 C28.73665633 4.90854371 33.52193175 6.6701354 38.5 9.1875 C40.01400391 9.92806641 40.01400391 9.92806641 41.55859375 10.68359375 C49.38718879 14.67626943 55.99217442 19.29451259 62.5 25.1875 C63.8921875 26.43853516 63.8921875 26.43853516 65.3125 27.71484375 C75.39665923 37.25277769 82.2877081 48.32223984 87.5 61.1875 C87.92539062 62.14269531 87.92539062 62.14269531 88.359375 63.1171875 C96.6041986 82.71967626 95.58689447 105.52112143 88.5 125.1875 C88.26571289 125.85434814 88.03142578 126.52119629 87.79003906 127.20825195 C83.45393973 139.21936289 77.12315332 149.75411751 68.5 159.1875 C67.75234375 160.02796875 67.0046875 160.8684375 66.234375 161.734375 C51.02050224 177.955789 27.90589972 189.05341223 5.55395508 190.2956543 C-20.03953696 191.01763536 -44.7934922 184.68482726 -63.8125 166.75 C-64.85384888 165.73413428 -65.89188149 164.71485236 -66.92578125 163.69140625 C-69.43276163 161.10050459 -69.43276163 161.10050459 -72.5 159.1875 C-72.5 158.5275 -72.5 157.8675 -72.5 157.1875 C-73.799375 157.14625 -75.09875 157.105 -76.4375 157.0625 C-82.11525074 156.46768802 -86.17017482 153.79056965 -90.5 150.1875 C-90.5 149.8575 -90.5 149.5275 -90.5 149.1875 C-87.2 149.1875 -83.9 149.1875 -80.5 149.1875 C-80.99628906 148.27613281 -81.49257812 147.36476562 -82.00390625 146.42578125 C-86.16304859 138.5760308 -89.6085799 130.67671423 -92.4375 122.25 C-92.73148682 121.38737549 -93.02547363 120.52475098 -93.32836914 119.63598633 C-100.43050996 97.75718393 -96.84342991 72.66768168 -86.74951172 52.35424805 C-82.85070412 44.87756547 -78.21775527 38.41269472 -72.5 32.1875 C-72.05672363 31.69652832 -71.61344727 31.20555664 -71.15673828 30.69970703 C-56.56925451 14.69054019 -38.6072942 5.61798694 -17.5 1.1875 C-16.59121094 0.9915625 -15.68242187 0.795625 -14.74609375 0.59375 C-9.83318958 -0.02110203 -4.94632234 0.00312663 0 0 Z M-59.5 34.1875 C-60.17289063 34.7753125 -60.84578125 35.363125 -61.5390625 35.96875 C-71.51058602 45.02654826 -82.9489648 62.32630613 -83.6484375 76.11328125 C-83.59945312 76.79777344 -83.55046875 77.48226562 -83.5 78.1875 C-81.53662377 75.70744581 -79.86694119 73.1484113 -78.25 70.4375 C-68.88628578 55.46111435 -53.29495416 46.06929844 -36.28515625 41.8828125 C-20.58226611 39.15581714 -2.44211556 39.37034051 12.5 45.1875 C13.53382813 45.56132813 14.56765625 45.93515625 15.6328125 46.3203125 C33.45060442 53.20135235 47.98830353 63.83673411 56.5 81.1875 C62.05493419 94.06484745 62.28237414 108.00414923 57.5 121.1875 C51.00803984 136.54966316 39.27808703 146.56458279 24.1875 153 C3.35451952 161.32750789 -20.90932832 162.46501217 -41.91796875 153.7734375 C-43.74620215 152.90883042 -45.5573878 152.00564406 -47.3359375 151.04296875 C-49.96782439 150.00256581 -50.89618916 150.15408091 -53.5 151.1875 C-55.10590715 151.99842994 -56.68941006 152.85495577 -58.25 153.75 C-59.04921875 154.20503906 -59.8484375 154.66007813 -60.671875 155.12890625 C-61.27515625 155.47824219 -61.8784375 155.82757813 -62.5 156.1875 C-57.88235238 166.59984268 -44.88219382 172.46699542 -34.87109375 176.734375 C-13.3090137 184.78169357 8.93679123 184.097743 29.97265625 174.83984375 C40.80976954 169.76332224 49.10547174 163.57038537 57.5 155.1875 C58.72396484 153.9809375 58.72396484 153.9809375 59.97265625 152.75 C66.20018173 146.25542797 70.32005239 139.07131918 74.5 131.1875 C74.91121094 130.49140625 75.32242188 129.7953125 75.74609375 129.078125 C85.04938514 112.71591602 86.41180616 87.75439773 81.75 69.875 C81.03667542 67.63382797 80.29069841 65.40255757 79.5 63.1875 C79.22285156 62.31609375 78.94570312 61.4446875 78.66015625 60.546875 C71.89071425 41.20561214 56.36062232 25.57162388 38.4375 16.25 C4.01259295 0.12057726 -32.72961809 8.26249857 -59.5 34.1875 Z M-68.5 64.1875 C-69.15742187 64.8475 -69.81484375 65.5075 -70.4921875 66.1875 C-76.29381198 72.36261961 -81.70545224 80.65491349 -81.5625 89.375 C-81.541875 90.633125 -81.52125 91.89125 -81.5 93.1875 C-80.4790625 92.6925 -80.4790625 92.6925 -79.4375 92.1875 C-75.96150705 91.00418325 -73.15036451 90.98087559 -69.5 91.1875 C-68.84 91.5175 -68.18 91.8475 -67.5 92.1875 C-66.875 94.75 -66.875 94.75 -66.5 97.1875 C-67.49 97.1875 -68.48 97.1875 -69.5 97.1875 C-70.16 95.8675 -70.82 94.5475 -71.5 93.1875 C-73.77029534 93.57893023 -75.33408198 94.07491278 -77.25 95.375 C-79.11326 98.07672699 -78.892614 99.98115235 -78.5 103.1875 C-77.12073227 105.53011608 -77.12073227 105.53011608 -75.5 107.1875 C-73.025 106.6925 -73.025 106.6925 -70.5 106.1875 C-70.5 105.1975 -70.5 104.2075 -70.5 103.1875 C-71.82 103.1875 -73.14 103.1875 -74.5 103.1875 C-74.17 102.5275 -73.84 101.8675 -73.5 101.1875 C-71.21484375 100.7734375 -71.21484375 100.7734375 -68.4375 100.5625 C-67.51839844 100.48773438 -66.59929687 100.41296875 -65.65234375 100.3359375 C-64.94207031 100.28695312 -64.23179688 100.23796875 -63.5 100.1875 C-63.5 98.5375 -63.5 96.8875 -63.5 95.1875 C-61.85 95.1875 -60.2 95.1875 -58.5 95.1875 C-58.5 98.4875 -58.5 101.7875 -58.5 105.1875 C-57.015 104.6925 -57.015 104.6925 -55.5 104.1875 C-54.58307039 101.43671116 -54.39113917 99.82801087 -54.4375 97 C-54.458125 95.741875 -54.47875 94.48375 -54.5 93.1875 C-50.16666667 93.1875 -45.83333333 93.1875 -41.5 93.1875 C-40.63375 93.14625 -39.7675 93.105 -38.875 93.0625 C-36.5 93.1875 -36.5 93.1875 -34.5 95.1875 C-33.875 97.8125 -33.875 97.8125 -33.5 100.1875 C-31.025 99.6925 -31.025 99.6925 -28.5 99.1875 C-28.17 100.1775 -27.84 101.1675 -27.5 102.1875 C-25.52 101.6925 -25.52 101.6925 -23.5 101.1875 C-23.69357766 99.25627373 -23.69357766 99.25627373 -24.5 97.1875 C-26.34956914 95.81080042 -26.34956914 95.81080042 -28.5625 94.75 C-30.7421875 93.484375 -30.7421875 93.484375 -32.5 92.1875 C-33.1875 89.5 -33.1875 89.5 -32.5 87.1875 C-29.29619983 85.05163322 -28.48060033 84.95617825 -24.8125 85.0625 C-24.00425781 85.08054688 -23.19601563 85.09859375 -22.36328125 85.1171875 C-21.74839844 85.14039063 -21.13351563 85.16359375 -20.5 85.1875 C-20.17 86.1775 -19.84 87.1675 -19.5 88.1875 C-22.14 87.8575 -24.78 87.5275 -27.5 87.1875 C-27.46219702 89.55983611 -27.46219702 89.55983611 -26.5 92.1875 C-22.90639603 95.21562121 -22.90639603 95.21562121 -18.5 96.1875 C-17.49503148 93.17259443 -17.39664697 91.14568308 -17.4375 88 C-17.44652344 87.09894531 -17.45554687 86.19789063 -17.46484375 85.26953125 C-17.47644531 84.58246094 -17.48804688 83.89539063 -17.5 83.1875 C-16.015 83.6825 -16.015 83.6825 -14.5 84.1875 C-14.005 88.6425 -14.005 88.6425 -13.5 93.1875 C-12.778125 92.548125 -12.05625 91.90875 -11.3125 91.25 C-8.5 89.1875 -8.5 89.1875 -3.5 88.1875 C-3.5 93.1375 -3.5 98.0875 -3.5 103.1875 C-5.48 102.6925 -5.48 102.6925 -7.5 102.1875 C-7.83 98.8875 -8.16 95.5875 -8.5 92.1875 C-11.77773504 92.93900023 -11.77773504 92.93900023 -13.5 96.1875 C-13.74055468 98.24459596 -13.74055468 98.24459596 -13.625 100.375 C-13.58375 101.633125 -13.5425 102.89125 -13.5 104.1875 C-14.61375 104.001875 -15.7275 103.81625 -16.875 103.625 C-20.32568861 102.87069343 -20.32568861 102.87069343 -22.5 104.1875 C-24.55859375 104.35546875 -24.55859375 104.35546875 -26.9375 104.375 C-27.71996094 104.38917969 -28.50242188 104.40335938 -29.30859375 104.41796875 C-31.5 104.1875 -31.5 104.1875 -34.5 102.1875 C-35.03625 102.868125 -35.5725 103.54875 -36.125 104.25 C-38.5 106.1875 -38.5 106.1875 -41.75 105.9375 C-42.6575 105.69 -43.565 105.4425 -44.5 105.1875 C-44.5 108.1575 -44.5 111.1275 -44.5 114.1875 C-45.82 113.8575 -47.14 113.5275 -48.5 113.1875 C-48.83 111.5375 -49.16 109.8875 -49.5 108.1875 C-50.428125 108.001875 -50.428125 108.001875 -51.375 107.8125 C-53.5 107.1875 -53.5 107.1875 -55.5 105.1875 C-56.16 106.1775 -56.82 107.1675 -57.5 108.1875 C-60.125 108.375 -60.125 108.375 -62.5 108.1875 C-62.83 105.8775 -63.16 103.5675 -63.5 101.1875 C-64.49 101.6825 -64.49 101.6825 -65.5 102.1875 C-65.5 104.8275 -65.5 107.4675 -65.5 110.1875 C-66.9540625 109.9090625 -66.9540625 109.9090625 -68.4375 109.625 C-69.448125 109.480625 -70.45875 109.33625 -71.5 109.1875 C-71.995 109.6825 -71.995 109.6825 -72.5 110.1875 C-78.02941176 110.42279412 -78.02941176 110.42279412 -80.5 109.1875 C-78.16635745 120.2788573 -71.25299296 128.4038628 -63.5 136.1875 C-65.45325929 142.55334959 -67.87243246 146.70019762 -73.8125 150.0625 C-74.699375 150.43375 -75.58625 150.805 -76.5 151.1875 C-76.5 151.8475 -76.5 152.5075 -76.5 153.1875 C-67.0131617 153.80719168 -67.0131617 153.80719168 -58.5 150.1875 C-55.68643108 147.62552877 -55.68643108 147.62552877 -53.5 145.1875 C-49.61274359 146.34317082 -46.074279 147.85977978 -42.4375 149.625 C-31.92829558 154.42439864 -21.4577788 155.68116514 -10 155.5625 C-8.87980469 155.57410156 -7.75960937 155.58570313 -6.60546875 155.59765625 C9.44293959 155.54212543 24.66743256 150.94409622 37.5 141.1875 C38.18835938 140.66414063 38.87671875 140.14078125 39.5859375 139.6015625 C48.31096821 132.48113514 54.415965 123.34024488 56.5 112.1875 C56.91015067 106.51984869 56.74191955 100.85916944 56.5 95.1875 C55.84 94.8575 55.18 94.5275 54.5 94.1875 C54.7165625 92.33125 54.7165625 92.33125 54.9375 90.4375 C54.94824938 83.62239189 51.23822868 78.64163693 47.5 73.1875 C47.0565625 72.5378125 46.613125 71.888125 46.15625 71.21875 C35.14710111 56.98741119 15.97646533 48.3925421 -1.12890625 44.60546875 C-26.10334923 41.50898509 -50.45647277 45.56192351 -68.5 64.1875 Z " fill="#4E2D11" transform="translate(151.5,54.8125)"/>
<path d="M0 0 C1.01964844 -0.01224609 2.03929687 -0.02449219 3.08984375 -0.03710938 C8.33957368 -0.04734942 12.5745925 0.18678056 17.5 2.1875 C19.43350693 2.66239644 21.371164 3.12069663 23.3125 3.5625 C28.73665633 4.90854371 33.52193175 6.6701354 38.5 9.1875 C40.01400391 9.92806641 40.01400391 9.92806641 41.55859375 10.68359375 C49.38718879 14.67626943 55.99217442 19.29451259 62.5 25.1875 C63.8921875 26.43853516 63.8921875 26.43853516 65.3125 27.71484375 C75.39665923 37.25277769 82.2877081 48.32223984 87.5 61.1875 C87.92539062 62.14269531 87.92539062 62.14269531 88.359375 63.1171875 C96.6041986 82.71967626 95.58689447 105.52112143 88.5 125.1875 C88.26571289 125.85434814 88.03142578 126.52119629 87.79003906 127.20825195 C83.45393973 139.21936289 77.12315332 149.75411751 68.5 159.1875 C67.75234375 160.02796875 67.0046875 160.8684375 66.234375 161.734375 C51.02050224 177.955789 27.90589972 189.05341223 5.55395508 190.2956543 C-21.2305579 191.05123353 -45.776141 183.91543725 -65.51660156 165.26123047 C-67.81937319 163.01143901 -69.70781413 160.8757788 -71.5 158.1875 C-67.01372869 157.76571381 -67.01372869 157.76571381 -64.75390625 159.62109375 C-64.19574219 160.28238281 -63.63757813 160.94367188 -63.0625 161.625 C-49.43330042 176.07246297 -28.85804993 184.01347854 -9.30126953 184.58935547 C5.4541486 184.76533089 20.1444971 182.86525145 33.5 176.1875 C34.58539063 175.64480469 35.67078125 175.10210937 36.7890625 174.54296875 C45.58250924 169.93140205 52.54087719 164.22581624 59.5 157.1875 C60.31339844 156.38441406 61.12679687 155.58132812 61.96484375 154.75390625 C78.46035035 137.58166092 86.10608523 114.30310096 85.8125 90.875 C85.81572266 89.56982422 85.81894531 88.26464844 85.82226562 86.91992188 C85.7853364 80.30958971 85.48627646 74.49602593 83.5 68.1875 C83.17902344 67.02089844 82.85804688 65.85429688 82.52734375 64.65234375 C76.06974754 43.75195172 63.20011964 27.24871191 44.08203125 16.21484375 C30.56863053 9.15067978 17.98851016 6.00848121 2.875 6 C1.74964844 5.98775391 0.62429687 5.97550781 -0.53515625 5.96289062 C-21.21149412 5.9270357 -42.73867806 13.18060509 -57.6875 28 C-58.6343259 29.0541979 -59.57325702 30.11560451 -60.5 31.1875 C-61.7065625 32.3321875 -61.7065625 32.3321875 -62.9375 33.5 C-72.15433311 43.16643473 -79.05338888 53.84227501 -83.8125 66.3125 C-84.05500488 66.94494629 -84.29750977 67.57739258 -84.54736328 68.22900391 C-87.99710578 77.73469014 -88.91448882 87.05185663 -88.9375 97.125 C-88.94136719 98.30126953 -88.94523437 99.47753906 -88.94921875 100.68945312 C-88.82956807 109.8477158 -87.36804787 117.98903348 -84.59375 126.6875 C-83.5 130.1875 -83.5 130.1875 -83.5 133.1875 C-82.18 133.1875 -80.86 133.1875 -79.5 133.1875 C-79.84933594 132.30449219 -80.19867188 131.42148438 -80.55859375 130.51171875 C-83.40996609 122.99152712 -85.31742459 116.32040449 -85.5 108.1875 C-83.84679644 111.33681538 -82.583871 114.55555011 -81.3125 117.875 C-78.11078343 125.63300553 -73.44725094 131.35737216 -67.5 137.1875 C-68.66542836 142.14057054 -71.6342885 144.16191595 -75.52734375 147.05078125 C-77.5 148.1875 -77.5 148.1875 -80.5 148.1875 C-94.43188944 132.61420979 -97.34751444 105.95973249 -96.5 86.1875 C-94.89864139 65.91887535 -86.1740435 47.07508777 -72.5 32.1875 C-72.05672363 31.69652832 -71.61344727 31.20555664 -71.15673828 30.69970703 C-56.56925451 14.69054019 -38.6072942 5.61798694 -17.5 1.1875 C-16.59121094 0.9915625 -15.68242187 0.795625 -14.74609375 0.59375 C-9.83318958 -0.02110203 -4.94632234 0.00312663 0 0 Z " fill="#EBE7E6" transform="translate(151.5,54.8125)"/>
<path d="M0 0 C1.1034375 -0.020625 2.206875 -0.04125 3.34375 -0.0625 C25.50142103 -0.16652662 45.8689192 9.99010643 61.49609375 25.30078125 C80.1338205 44.60066339 84.85718053 68.04930359 84.53125 93.83203125 C84.33027119 101.88424709 83.22282279 108.71626667 80.25 116.25 C79.86457031 117.29414063 79.47914063 118.33828125 79.08203125 119.4140625 C70.45054283 141.48162188 55.66325734 158.4954466 35.25 170.25 C34.40953125 170.75273437 33.5690625 171.25546875 32.703125 171.7734375 C15.49966421 181.29884364 -9.28524862 183.41494023 -28.1875 178.75 C-43.29960863 174.32542386 -58.27014333 166.14605352 -68.75 154.25 C-68.75 153.59 -68.75 152.93 -68.75 152.25 C-64.58178289 152.7629002 -62.74075119 153.84945771 -59.8125 156.8125 C-44.76593611 170.71313352 -24.15229258 177.02620318 -3.9296875 176.49609375 C19.06593433 175.4186765 39.10442707 165.37263887 55.25 149.25 C56.36375 148.15365234 56.36375 148.15365234 57.5 147.03515625 C63.39366678 140.85371277 67.25069239 133.7219207 71.25 126.25 C71.86875 125.20392578 71.86875 125.20392578 72.5 124.13671875 C81.79301604 107.76503814 83.16336201 82.82286488 78.5 64.9375 C77.78667542 62.69632797 77.04069841 60.46505757 76.25 58.25 C75.97285156 57.37859375 75.69570312 56.5071875 75.41015625 55.609375 C72.67130738 47.78409252 67.93765959 41.02014199 63.25 34.25 C62.77949219 33.569375 62.30898437 32.88875 61.82421875 32.1875 C50.37754193 17.44503079 30.9141725 7.86736412 12.9453125 4.66015625 C-10.85587453 2.01837545 -32.47446694 6.97619645 -51.75 21.25 C-55.23827671 24.10665459 -58.51094741 27.1163777 -61.75 30.25 C-62.34941406 30.76433594 -62.94882813 31.27867188 -63.56640625 31.80859375 C-77.81045214 44.53239344 -86.34304631 66.23175302 -87.58203125 84.86328125 C-87.63746094 85.98089844 -87.69289063 87.09851563 -87.75 88.25 C-87.81574219 89.48105469 -87.88148437 90.71210938 -87.94921875 91.98046875 C-88.27453972 103.34426683 -86.97455014 114.9891718 -81.75 125.25 C-81.75 126.24 -81.75 127.23 -81.75 128.25 C-83.07 128.25 -84.39 128.25 -85.75 128.25 C-86.56313676 125.3335095 -87.3755335 122.41681631 -88.1875 119.5 C-88.53264648 118.2625 -88.53264648 118.2625 -88.88476562 117 C-89.10712891 116.20078125 -89.32949219 115.4015625 -89.55859375 114.578125 C-89.76282959 113.8449707 -89.96706543 113.11181641 -90.17749023 112.35644531 C-90.36641846 111.66131836 -90.55534668 110.96619141 -90.75 110.25 C-90.9346582 109.61900391 -91.11931641 108.98800781 -91.30957031 108.33789062 C-94.3242107 94.04675727 -92.59432082 76.93839338 -87.75 63.25 C-87.2240625 61.69732422 -87.2240625 61.69732422 -86.6875 60.11328125 C-78.11774205 37.34986168 -60.10402369 18.34063997 -38.4296875 7.60546875 C-35.56136871 6.39138496 -32.68658408 5.28669034 -29.75 4.25 C-28.93789062 3.94449219 -28.12578125 3.63898437 -27.2890625 3.32421875 C-18.34668506 0.10435247 -9.41810594 0.04340141 0 0 Z " fill="#21172D" transform="translate(153.75,59.75)"/>
<path d="M0 0 C1.32 0.33 2.64 0.66 4 1 C4.495 4.96 4.495 4.96 5 9 C5.556875 8.34 6.11375 7.68 6.6875 7 C9 5 9 5 14 5 C14 9.95 14 14.9 14 20 C12.35 19.67 10.7 19.34 9 19 C9 15.7 9 12.4 9 9 C6.69857565 10.78174788 5.19965609 12.16304165 4.51171875 15.046875 C4.27676898 17.0246611 4.13248542 19.01271872 4 21 C2.88625 20.979375 1.7725 20.95875 0.625 20.9375 C-2.83215921 20.73619282 -2.83215921 20.73619282 -5 22 C-7.05859375 22.16796875 -7.05859375 22.16796875 -9.4375 22.1875 C-10.61119141 22.20876953 -10.61119141 22.20876953 -11.80859375 22.23046875 C-14 22 -14 22 -17 20 C-17.556875 20.680625 -18.11375 21.36125 -18.6875 22.0625 C-19.450625 22.701875 -20.21375 23.34125 -21 24 C-23.75 23.75 -23.75 23.75 -26 23 C-26.33 25.64 -26.66 28.28 -27 31 C-28.65 30.67 -30.3 30.34 -32 30 C-32 28.35 -32 26.7 -32 25 C-32.804375 24.855625 -33.60875 24.71125 -34.4375 24.5625 C-37 24 -37 24 -38 23 C-38.66 23.99 -39.32 24.98 -40 26 C-42.625 26.1875 -42.625 26.1875 -45 26 C-45.66 23.69 -46.32 21.38 -47 19 C-47.33 21.64 -47.66 24.28 -48 27 C-48.969375 26.979375 -49.93875 26.95875 -50.9375 26.9375 C-53.87465895 26.64381501 -53.87465895 26.64381501 -55 28 C-60.3639576 28.4664311 -60.3639576 28.4664311 -62.875 26.625 C-64 25 -64 25 -64 23 C-64.66 23 -65.32 23 -66 23 C-66.76140684 15.38593156 -66.76140684 15.38593156 -64.95703125 12.1015625 C-63.17646218 9.96070232 -61.50485776 8.25242888 -59 7 C-52.52941176 6.64705882 -52.52941176 6.64705882 -49 9 C-48.8125 11.625 -48.8125 11.625 -49 14 C-49.99 14 -50.98 14 -52 14 C-52.66 13.01 -53.32 12.02 -54 11 C-56.86724686 11.57344937 -57.8614515 11.8614515 -60 14 C-60.34490322 18.05261287 -60.30163882 19.54754176 -58 23 C-56.68 23 -55.36 23 -54 23 C-53.67 22.01 -53.34 21.02 -53 20 C-54.32 20 -55.64 20 -57 20 C-56.67 19.01 -56.34 18.02 -56 17 C-52.7 17 -49.4 17 -46 17 C-46 15.35 -46 13.7 -46 12 C-44.35 12 -42.7 12 -41 12 C-41 15.3 -41 18.6 -41 22 C-40.34 21.67 -39.68 21.34 -39 21 C-38.30906104 18.42048126 -38.30906104 18.42048126 -37.875 15.4375 C-37.70742187 14.42558594 -37.53984375 13.41367188 -37.3671875 12.37109375 C-37.24601562 11.58863281 -37.12484375 10.80617187 -37 10 C-35.58366664 9.83052421 -34.16691467 9.66454493 -32.75 9.5 C-31.96109375 9.4071875 -31.1721875 9.314375 -30.359375 9.21875 C-28 9 -28 9 -24 9 C-23.154375 8.938125 -22.30875 8.87625 -21.4375 8.8125 C-19 9 -19 9 -17.25 10.25 C-15.87958164 12.16858571 -15.3981173 13.69091968 -15 16 C-13.68 16 -12.36 16 -11 16 C-10.505 16.99 -10.505 16.99 -10 18 C-9.01 18 -8.02 18 -7 18 C-7 17.01 -7 16.02 -7 15 C-8.73439821 13.56506893 -8.73439821 13.56506893 -10.9375 12.375 C-14.97468354 10.02531646 -14.97468354 10.02531646 -16 9 C-16.3125 6.625 -16.3125 6.625 -16 4 C-14.5625 2.1875 -14.5625 2.1875 -12 1 C-8.98228984 0.7610763 -6.01993159 0.82577318 -3 1 C-2.01 2.98 -2.01 2.98 -1 5 C-3.78823655 6.0326802 -4.8677274 6.04509293 -7.75 5.0625 C-8.4925 4.711875 -9.235 4.36125 -10 4 C-9.31267043 6.74931827 -8.64439778 8.53418821 -6.30859375 10.22265625 C-4.56883675 11.20324656 -2.7862389 12.10688055 -1 13 C-0.505 6.565 -0.505 6.565 0 0 Z " fill="#1D1225" transform="translate(134,138)"/>
<path d="M0 0 C2.625 0.25 2.625 0.25 4.4375 1.3125 C6.32780462 4.39668123 6.05162339 6.71512047 5.625 10.25 C4.0625 13.25 4.0625 13.25 1.625 15.25 C-2.125 15.0625 -2.125 15.0625 -5.375 14.25 C-5.375 16.89 -5.375 19.53 -5.375 22.25 C-7.025 21.92 -8.675 21.59 -10.375 21.25 C-10.705 19.27 -11.035 17.29 -11.375 15.25 C-12.035 15.91 -12.695 16.57 -13.375 17.25 C-16.5 17.375 -16.5 17.375 -19.375 17.25 C-19.705 19.56 -20.035 21.87 -20.375 24.25 C-22.025 24.25 -23.675 24.25 -25.375 24.25 C-25.375 22.6 -25.375 20.95 -25.375 19.25 C-28.84647842 18.50042843 -28.84647842 18.50042843 -32.375 18.25 C-33.035 18.91 -33.695 19.57 -34.375 20.25 C-36.025 19.92 -37.675 19.59 -39.375 19.25 C-39.375 14.63 -39.375 10.01 -39.375 5.25 C-36.9 5.745 -36.9 5.745 -34.375 6.25 C-34.375 9.22 -34.375 12.19 -34.375 15.25 C-33.715 14.92 -33.055 14.59 -32.375 14.25 C-31.68568656 11.90092125 -31.68568656 11.90092125 -31.25 9.1875 C-30.99863281 7.80884766 -30.99863281 7.80884766 -30.7421875 6.40234375 C-30.62101563 5.69207031 -30.49984375 4.98179687 -30.375 4.25 C-28.75012529 4.08211627 -27.12509558 3.91573213 -25.5 3.75 C-24.14261719 3.61078125 -24.14261719 3.61078125 -22.7578125 3.46875 C-20.375 3.25 -20.375 3.25 -18.375 3.25 C-17.570625 3.023125 -16.76625 2.79625 -15.9375 2.5625 C-15.091875 2.459375 -14.24625 2.35625 -13.375 2.25 C-11.5625 3.6875 -11.5625 3.6875 -10.375 5.25 C-10.045 3.93 -9.715 2.61 -9.375 1.25 C-7.9209375 1.2809375 -7.9209375 1.2809375 -6.4375 1.3125 C-3.04923212 1.24335168 -3.12269565 0.32870481 0 0 Z " fill="#2E2130" transform="translate(188.375,136.75)"/>
<path d="M0 0 C14.18917792 12.0802285 21.99458478 27.96113045 26.375 45.8125 C26.5507959 46.43334473 26.7265918 47.05418945 26.90771484 47.69384766 C29.70144315 60.36050088 28.0236407 76.44394277 24.375 88.8125 C23.715 89.4725 23.055 90.1325 22.375 90.8125 C22.519375 90.09191406 22.66375 89.37132812 22.8125 88.62890625 C27.02101073 64.28384072 25.57062965 40.27774923 11.12109375 19.50390625 C-2.45605032 0.75619177 -21.74571212 -11.47064818 -44.625 -15.1875 C-49.6131325 -15.61783451 -54.55744394 -15.71130603 -59.5625 -15.6875 C-60.8726709 -15.68540527 -62.1828418 -15.68331055 -63.53271484 -15.68115234 C-73.9997733 -15.51054333 -82.60757882 -14.13637142 -91.8046875 -8.9609375 C-93.625 -8.1875 -93.625 -8.1875 -96.625 -9.1875 C-64.13925084 -26.74736441 -28.46656385 -23.28074672 0 0 Z " fill="#F1EADD" transform="translate(207.625,83.1875)"/>
<path d="M0 0 C1.32 0.33 2.64 0.66 4 1 C4.33 3.64 4.66 6.28 5 9 C5.556875 8.34 6.11375 7.68 6.6875 7 C9 5 9 5 14 5 C14 9.95 14 14.9 14 20 C12.35 19.67 10.7 19.34 9 19 C9 15.7 9 12.4 9 9 C6.69857565 10.78174788 5.19965609 12.16304165 4.51171875 15.046875 C4.27676898 17.0246611 4.13248542 19.01271872 4 21 C2.88625 20.979375 1.7725 20.95875 0.625 20.9375 C-2.83215921 20.73619282 -2.83215921 20.73619282 -5 22 C-6.54023996 22.06950541 -8.08334988 22.08452357 -9.625 22.0625 C-10.85089844 22.04896484 -10.85089844 22.04896484 -12.1015625 22.03515625 C-12.72804688 22.02355469 -13.35453125 22.01195312 -14 22 C-15.0625 20.125 -15.0625 20.125 -16 18 C-15.67 17.34 -15.34 16.68 -15 16 C-13.68 16 -12.36 16 -11 16 C-10.67 16.66 -10.34 17.32 -10 18 C-9.01 18 -8.02 18 -7 18 C-7 17.01 -7 16.02 -7 15 C-8.73439821 13.56506893 -8.73439821 13.56506893 -10.9375 12.375 C-14.97468354 10.02531646 -14.97468354 10.02531646 -16 9 C-16.3125 6.625 -16.3125 6.625 -16 4 C-14.5625 2.1875 -14.5625 2.1875 -12 1 C-8.98228984 0.7610763 -6.01993159 0.82577318 -3 1 C-2.34 2.32 -1.68 3.64 -1 5 C-3.78823655 6.0326802 -4.8677274 6.04509293 -7.75 5.0625 C-8.4925 4.711875 -9.235 4.36125 -10 4 C-9.31267043 6.74931827 -8.64439778 8.53418821 -6.30859375 10.22265625 C-4.56883675 11.20324656 -2.7862389 12.10688055 -1 13 C-0.67 8.71 -0.34 4.42 0 0 Z " fill="#170B21" transform="translate(134,138)"/>
<path d="M0 0 C4.85001432 0.47317213 7.93558163 2.8817341 11.6875 5.75 C26.81054455 16.89018275 41.8746833 21.1714385 60.5625 21.25 C61.76197266 21.270625 62.96144531 21.29125 64.19726562 21.3125 C75.85859991 21.36284575 86.30619849 19.54869871 96.5625 13.875 C104.0381143 9.86789838 104.0381143 9.86789838 108 9 C105.21725393 12.3581259 101.45714012 14.03917341 97.625 15.9375 C96.91255127 16.29086426 96.20010254 16.64422852 95.46606445 17.00830078 C89.15831299 20.05769229 82.8081136 22.31570106 76 24 C74.6696875 24.33644531 74.6696875 24.33644531 73.3125 24.6796875 C60.7221643 27.41508781 48.28930121 26.62456605 36 23 C34.98164062 22.70996094 33.96328125 22.41992188 32.9140625 22.12109375 C20.59317459 18.33614232 8.61702764 11.80463081 0 2 C0 1.34 0 0.68 0 0 Z " fill="#E2DDDB" transform="translate(89,211)"/>
<path d="M0 0 C0.86688859 2.89910284 1.0458562 5.11452831 0.66015625 8.109375 C0.5199707 9.24052734 0.5199707 9.24052734 0.37695312 10.39453125 C0.27318359 11.17183594 0.16941406 11.94914063 0.0625 12.75 C-0.03740234 13.54277344 -0.13730469 14.33554688 -0.24023438 15.15234375 C-0.48692871 17.10240371 -0.7425878 19.05132586 -1 21 C-2.32 21 -3.64 21 -5 21 C-5 19.35 -5 17.7 -5 16 C-8.47147842 15.25042843 -8.47147842 15.25042843 -12 15 C-12.66 15.66 -13.32 16.32 -14 17 C-15.65 16.67 -17.3 16.34 -19 16 C-19 11.38 -19 6.76 -19 2 C-16.525 2.495 -16.525 2.495 -14 3 C-14 5.97 -14 8.94 -14 12 C-13.34 11.67 -12.68 11.34 -12 11 C-11.31068656 8.65092125 -11.31068656 8.65092125 -10.875 5.9375 C-10.62363281 4.55884766 -10.62363281 4.55884766 -10.3671875 3.15234375 C-10.24601563 2.44207031 -10.12484375 1.73179687 -10 1 C-6.58093768 0.27021695 -3.50129871 -0.10003711 0 0 Z " fill="#291D2D" transform="translate(168,140)"/>
<path d="M0 0 C0.33 0 0.66 0 1 0 C0.93941406 0.58265625 0.87882812 1.1653125 0.81640625 1.765625 C0.5359648 4.50963676 0.26800625 7.2547468 0 10 C-0.09539062 10.91523438 -0.19078125 11.83046875 -0.2890625 12.7734375 C-1.78753404 28.40035494 -2.32143413 44.62096721 5 59 C5 59.99 5 60.98 5 62 C3.68 62 2.36 62 1 62 C0.18686324 59.0835095 -0.6255335 56.16681631 -1.4375 53.25 C-1.66759766 52.425 -1.89769531 51.6 -2.13476562 50.75 C-2.35712891 49.95078125 -2.57949219 49.1515625 -2.80859375 48.328125 C-3.01282959 47.5949707 -3.21706543 46.86181641 -3.42749023 46.10644531 C-3.61641846 45.41131836 -3.80534668 44.71619141 -4 44 C-4.1846582 43.3719043 -4.36931641 42.74380859 -4.55957031 42.09667969 C-5.5933344 37.17541253 -5.27215893 32.00767105 -5.3125 27 C-5.34150391 25.83082031 -5.37050781 24.66164062 -5.40039062 23.45703125 C-5.45909207 15.32010835 -4.23206778 8.49636233 -1 1 C-0.67 0.67 -0.34 0.34 0 0 Z " fill="#1E1327" transform="translate(67,126)"/>
<path d="M0 0 C4.85001432 0.47317213 7.93558163 2.8817341 11.6875 5.75 C20.90596376 12.54065453 30.04104453 16.62946215 41 20 C40.01 20.495 40.01 20.495 39 21 C39 21.66 39 22.32 39 23 C39.99 23.33 40.98 23.66 42 24 C26.27656368 21.65425839 10.61855512 14.08200983 0 2 C0 1.34 0 0.68 0 0 Z " fill="#EEE7DF" transform="translate(89,211)"/>
<path d="M0 0 C0.99 0.66 1.98 1.32 3 2 C3.1875 4.625 3.1875 4.625 3 7 C2.01 7 1.02 7 0 7 C-0.66 6.01 -1.32 5.02 -2 4 C-4.86724686 4.57344937 -5.8614515 4.8614515 -8 7 C-8.34490322 11.05261287 -8.30163882 12.54754176 -6 16 C-2.94570927 17.21284876 -2.94570927 17.21284876 0 18 C-1.125 19.5 -1.125 19.5 -3 21 C-6.28498832 21.41062354 -8.15845419 21.6171336 -10.875 19.625 C-12 18 -12 18 -12 16 C-12.66 16 -13.32 16 -14 16 C-14.76140684 8.38593156 -14.76140684 8.38593156 -12.95703125 5.1015625 C-8.84770899 0.16073515 -6.29360257 -0.33124224 0 0 Z " fill="#14091D" transform="translate(82,145)"/>
<path d="M0 0 C2.56220249 1.64713017 2.9872686 2.96095706 3.9375 5.875 C4 9 4 9 2.4375 11.8125 C-0.45189116 14.40554335 -2.14756703 14.91625146 -6 15 C-8 13 -8 13 -8.23046875 11.125 C-8.21628906 10.42375 -8.20210938 9.7225 -8.1875 9 C-8.18105469 8.29875 -8.17460938 7.5975 -8.16796875 6.875 C-8 5 -8 5 -7 3 C-7.66 3 -8.32 3 -9 3 C-7.1955986 -0.60880281 -3.63650643 -0.36365064 0 0 Z " fill="#2D2130" transform="translate(115,147)"/>
<path d="M0 0 C1.8125 1.0625 1.8125 1.0625 3 3 C3.52918381 7.08227509 3.3470371 9.33368878 1.4375 13 C-1 15 -1 15 -4.75 14.8125 C-5.8225 14.544375 -6.895 14.27625 -8 14 C-8.08082094 12.04233719 -8.13910778 10.08373272 -8.1875 8.125 C-8.22230469 7.03445312 -8.25710937 5.94390625 -8.29296875 4.8203125 C-8.19628906 3.88960937 -8.09960938 2.95890625 -8 2 C-4.76746204 -0.15502531 -3.74849077 -0.46856135 0 0 Z " fill="#271B2C" transform="translate(191,137)"/>
<path d="M0 0 C0 0.99 0 1.98 0 3 C0.66 3 1.32 3 2 3 C1.67 9.27 1.34 15.54 1 22 C-0.65 21.67 -2.3 21.34 -4 21 C-4.60965199 14.97968656 -5.13451772 9.05329744 -5 3 C-5.99 2.67 -6.98 2.34 -8 2 C-8 3.98 -8 5.96 -8 8 C-8.33 8 -8.66 8 -9 8 C-9 5.69 -9 3.38 -9 1 C-5.846632 0.29925156 -3.27275026 0 0 0 Z " fill="#231829" transform="translate(106,147)"/>
<path d="M0 0 C0.33 0.99 0.66 1.98 1 3 C-0.28172797 5.1834613 -1.60271308 7.19123138 -3.0625 9.25 C-7.94418032 16.42686283 -11.09122774 23.85543766 -14 32 C-14.66 31.67 -15.32 31.34 -16 31 C-16.66 32.98 -17.32 34.96 -18 37 C-19.71704693 32.91425579 -18.13157717 29.57878964 -16.625 25.6875 C-16.35896973 24.99124512 -16.09293945 24.29499023 -15.81884766 23.57763672 C-13.73281478 18.35490693 -11.2354803 13.46385064 -8.375 8.625 C-8.0032666 7.98908936 -7.6315332 7.35317871 -7.24853516 6.69799805 C-5.24290281 3.4456333 -3.69157285 1.25279622 0 0 Z " fill="#1E1427" transform="translate(83,96)"/>
<path d="M0 0 C11.44744844 2.05675197 20.90485583 7.44533026 31 13 C30.01 13.99 29.02 14.98 28 16 C27.42894531 15.62488281 26.85789063 15.24976562 26.26953125 14.86328125 C16.55894664 8.73434311 6.36956571 4.71955057 -5 3 C-5 2.67 -5 2.34 -5 2 C-3.35 2 -1.7 2 0 2 C0 1.34 0 0.68 0 0 Z " fill="#DEDADB" transform="translate(172,58)"/>
<path d="M0 0 C8.45235373 12.67853059 6.29790685 33.05478323 3.625 47.3125 C2.3316129 53.6683871 2.3316129 53.6683871 0 56 C0.144375 55.27941406 0.28875 54.55882812 0.4375 53.81640625 C1.84912932 45.65052274 2.24852719 37.65148272 2.3125 29.375 C2.32990234 28.33931885 2.34730469 27.3036377 2.36523438 26.23657227 C2.36100953 19.55657169 1.40887553 13.70623165 -0.45239258 7.28759766 C-0.63310303 6.53269043 -0.81381348 5.7777832 -1 5 C-0.67 4.67 -0.34 4.34 0 4 C0 2.68 0 1.36 0 0 Z " fill="#E1D3AA" transform="translate(230,118)"/>
<path d="M0 0 C1.8125 0.9375 1.8125 0.9375 2.8125 3.9375 C5.82097418 5.16270264 5.82097418 5.16270264 8.8125 5.9375 C8.8125 6.2675 8.8125 6.5975 8.8125 6.9375 C7.74708984 7.01097656 7.74708984 7.01097656 6.66015625 7.0859375 C5.74105469 7.16070312 4.82195312 7.23546875 3.875 7.3125 C2.95847656 7.38210937 2.04195312 7.45171875 1.09765625 7.5234375 C0.34355469 7.66007813 -0.41054687 7.79671875 -1.1875 7.9375 C-1.5175 8.5975 -1.8475 9.2575 -2.1875 9.9375 C-0.8675 9.9375 0.4525 9.9375 1.8125 9.9375 C1.4825 11.2575 1.1525 12.5775 0.8125 13.9375 C-1.5625 13.625 -1.5625 13.625 -4.1875 12.9375 C-6.51499345 9.44625983 -6.69049316 8.04527749 -6.1875 3.9375 C-3.29302764 -0.0940865 -3.29302764 -0.0940865 0 0 Z " fill="#B4A08C" transform="translate(79.1875,148.0625)"/>
<path d="M0 0 C1.32 0 2.64 0 4 0 C6.23205392 6.69616177 4.8733058 14.12271685 4 21 C2.68 21 1.36 21 0 21 C0 14.07 0 7.14 0 0 Z " fill="#13081E" transform="translate(179,138)"/>
<path d="M0 0 C0.99 0 1.98 0 3 0 C3 9.9 3 19.8 3 30 C2.01 30 1.02 30 0 30 C0 20.1 0 10.2 0 0 Z " fill="#180F25" transform="translate(235,131)"/>
<path d="M0 0 C0 4.95 0 9.9 0 15 C-1.65 14.67 -3.3 14.34 -5 14 C-5 10.7 -5 7.4 -5 4 C-6.32 4.99 -7.64 5.98 -9 7 C-9 4 -9 4 -7.3125 1.8125 C-5 0 -5 0 0 0 Z " fill="#1E1326" transform="translate(148,143)"/>
<path d="M0 0 C1.32 0 2.64 0 4 0 C4.86688859 2.89910284 5.0458562 5.11452831 4.66015625 8.109375 C4.56669922 8.86347656 4.47324219 9.61757812 4.37695312 10.39453125 C4.22129883 11.56048828 4.22129883 11.56048828 4.0625 12.75 C3.96259766 13.54277344 3.86269531 14.33554688 3.75976562 15.15234375 C3.51307129 17.10240371 3.2574122 19.05132586 3 21 C1.68 21 0.36 21 -1 21 C-1.33 18.69 -1.66 16.38 -2 14 C-1.34 14 -0.68 14 0 14 C0 9.38 0 4.76 0 0 Z " fill="#0F051C" transform="translate(164,140)"/>
<path d="M0 0 C0.66 0.33 1.32 0.66 2 1 C-13.08239694 10.11275257 -26.12442943 15.63503423 -44 14.5625 C-45.44826172 14.48418945 -45.44826172 14.48418945 -46.92578125 14.40429688 C-49.2842825 14.27586364 -51.64222045 14.14096811 -54 14 C-54 13.67 -54 13.34 -54 13 C-53.0570105 12.97812622 -53.0570105 12.97812622 -52.0949707 12.95581055 C-33.05616765 12.46299236 -18.79727919 10.03689568 -2 1 C-1.34 0.67 -0.68 0.34 0 0 Z " fill="#EADBAE" transform="translate(195,220)"/>
<path d="M0 0 C-1.98 0.66 -3.96 1.32 -6 2 C-5.67 2.66 -5.34 3.32 -5 4 C-6.64548828 4.61488281 -6.64548828 4.61488281 -8.32421875 5.2421875 C-9.77865686 5.78642886 -11.23308333 6.33070133 -12.6875 6.875 C-13.40873047 7.14441406 -14.12996094 7.41382812 -14.87304688 7.69140625 C-18.59946483 9.08668603 -22.31324655 10.50202917 -26 12 C-25.84375 9.6640625 -25.84375 9.6640625 -25 7 C-22.59375 5.5234375 -22.59375 5.5234375 -19.5 4.375 C-17.87578125 3.76398438 -17.87578125 3.76398438 -16.21875 3.140625 C-15.1565625 2.76421875 -14.094375 2.3878125 -13 2 C-11.68515625 1.49726562 -11.68515625 1.49726562 -10.34375 0.984375 C-4.05500645 -1.32149764 -4.05500645 -1.32149764 0 0 Z " fill="#291F34" transform="translate(137,62)"/>
<path d="M0 0 C0.95648438 0.01353516 1.91296875 0.02707031 2.8984375 0.04101562 C5.2245811 0.07590778 7.5494653 0.12491661 9.875 0.1875 C10.37 1.1775 10.37 1.1775 10.875 2.1875 C8.94333984 2.27837891 8.94333984 2.27837891 6.97265625 2.37109375 C5.29425841 2.45548247 3.61587364 2.5401313 1.9375 2.625 C0.66229492 2.68397461 0.66229492 2.68397461 -0.63867188 2.74414062 C-1.44755859 2.78603516 -2.25644531 2.82792969 -3.08984375 2.87109375 C-3.8387085 2.90775146 -4.58757324 2.94440918 -5.35913086 2.98217773 C-7.14961326 3.00521063 -7.14961326 3.00521063 -8.125 4.1875 C-10.47487262 4.42277773 -12.83056039 4.60136417 -15.1875 4.75 C-16.47785156 4.83378906 -17.76820313 4.91757813 -19.09765625 5.00390625 C-20.09667969 5.06449219 -21.09570312 5.12507813 -22.125 5.1875 C-21.125 3.1875 -21.125 3.1875 -19.23095703 2.3425293 C-12.68360894 0.30852096 -6.82869322 -0.18702179 0 0 Z " fill="#0D041B" transform="translate(152.125,59.8125)"/>
<path d="M0 0 C1.65 0 3.3 0 5 0 C6 1 6 1 6.09765625 4.16015625 C6.08605469 5.44792969 6.07445312 6.73570312 6.0625 8.0625 C6.05347656 9.35285156 6.04445312 10.64320313 6.03515625 11.97265625 C6.02355469 12.97167969 6.01195312 13.97070312 6 15 C4.35 14.67 2.7 14.34 1 14 C0.67 9.38 0.34 4.76 0 0 Z " fill="#1E1016" transform="translate(222,126)"/>
<path d="M0 0 C0.33 1.32 0.66 2.64 1 4 C0.01 4.495 0.01 4.495 -1 5 C-1.46523063 6.89533342 -1.46523063 6.89533342 -1.625 9.0625 C-1.74875 10.361875 -1.8725 11.66125 -2 13 C-3.32 13 -4.64 13 -6 13 C-6 12.34 -6 11.68 -6 11 C-6.66 11 -7.32 11 -8 11 C-7.67 9.35 -7.34 7.7 -7 6 C-8.32 6 -9.64 6 -11 6 C-10.67 5.01 -10.34 4.02 -10 3 C-6.7 3 -3.4 3 0 3 C0 2.01 0 1.02 0 0 Z " fill="#211528" transform="translate(88,152)"/>
<path d="M0 0 C1.32 0 2.64 0 4 0 C4 3.63 4 7.26 4 11 C4.99 11 5.98 11 7 11 C6.34 12.32 5.68 13.64 5 15 C3.35 14.67 1.7 14.34 0 14 C0 9.38 0 4.76 0 0 Z " fill="#160B20" transform="translate(149,142)"/>
<path d="M0 0 C0.66 0.33 1.32 0.66 2 1 C2 1.99 2 2.98 2 4 C-3.93661416 6.41862058 -9.68878497 7.9007105 -16 9 C-16 7.68 -16 6.36 -16 5 C-15.09636719 4.72285156 -14.19273437 4.44570312 -13.26171875 4.16015625 C-12.08222656 3.79792969 -10.90273437 3.43570313 -9.6875 3.0625 C-7.92986328 2.52302734 -7.92986328 2.52302734 -6.13671875 1.97265625 C-4.08446023 1.33627721 -2.03839863 0.67946621 0 0 Z " fill="#22182E" transform="translate(181,229)"/>
<path d="M0 0 C0.33 0 0.66 0 1 0 C1.02708567 1.60407328 1.04643483 3.2082785 1.0625 4.8125 C1.07410156 5.70582031 1.08570313 6.59914062 1.09765625 7.51953125 C1 10 1 10 0 13 C-3.42691357 11.76250343 -6.35302769 10.5489363 -9 8 C-9 6.68 -9 5.36 -9 4 C-6.36 4.33 -3.72 4.66 -1 5 C-0.67 3.35 -0.34 1.7 0 0 Z " fill="#A69383" transform="translate(133,138)"/>
<path d="M0 0 C2.68099685 2.57375698 5.23464064 5.26524824 7.75 8 C8.67039062 8.99 8.67039062 8.99 9.609375 10 C11 12 11 12 11 16 C10.34 16.66 9.68 17.32 9 18 C4.79515783 12.24385683 1.85913191 6.89835786 0 0 Z " fill="#EDBD09" transform="translate(72,179)"/>
<path d="M0 0 C-1 3 -1 3 -3 4 C-4.44848582 4.08342159 -5.90070869 4.10732861 -7.3515625 4.09765625 C-8.20234375 4.09443359 -9.053125 4.09121094 -9.9296875 4.08789062 C-10.81914062 4.07951172 -11.70859375 4.07113281 -12.625 4.0625 C-13.5221875 4.05798828 -14.419375 4.05347656 -15.34375 4.04882812 C-17.56256648 4.03702591 -19.78125018 4.02056155 -22 4 C-22 3.34 -22 2.68 -22 2 C-19.27123692 1.66304138 -16.54206837 1.33031571 -13.8125 1 C-13.04357422 0.90460938 -12.27464844 0.80921875 -11.48242188 0.7109375 C-7.63071189 0.24807106 -3.88829149 -0.12467468 0 0 Z " fill="#140B22" transform="translate(166,235)"/>
<path d="M0 0 C1.98 0.495 1.98 0.495 4 1 C4 4.96 4 8.92 4 13 C2.68 13.33 1.36 13.66 0 14 C-0.77916092 8.97874074 -1.13016601 5.02296004 0 0 Z " fill="#0D021A" transform="translate(98,149)"/>
<path d="M0 0 C3.3 1.98 6.6 3.96 10 6 C9.67 7.32 9.34 8.64 9 10 C7.68 9.67 6.36 9.34 5 9 C5 8.34 5 7.68 5 7 C3.35 7.33 1.7 7.66 0 8 C0 5.36 0 2.72 0 0 Z " fill="#B19D8A" transform="translate(118,147)"/>
<path d="M0 0 C1.32 0.33 2.64 0.66 4 1 C3.566875 2.051875 3.566875 2.051875 3.125 3.125 C1.97866412 6.05452503 0.97374346 9.00921653 0 12 C-0.66 11.67 -1.32 11.34 -2 11 C-2.66 12.98 -3.32 14.96 -4 17 C-5.6852084 12.92320841 -4.16939007 10.16924407 -2.5625 6.25 C-2.08941406 5.07953125 -1.61632812 3.9090625 -1.12890625 2.703125 C-0.75636719 1.81109375 -0.38382812 0.9190625 0 0 Z " fill="#332939" transform="translate(69,116)"/>
<path d="M0 0 C0.33 0.99 0.66 1.98 1 3 C-3.29 7.29 -7.58 11.58 -12 16 C-12.99 15.67 -13.98 15.34 -15 15 C-10 10 -5 5 0 0 Z " fill="#130920" transform="translate(216,204)"/>
<path d="M0 0 C1.32 0 2.64 0 4 0 C2.69386058 3.91841827 1.16870152 6.32640809 -2 9 C-2.66 9 -3.32 9 -4 9 C-5.37310707 10.29233607 -6.71034824 11.62437146 -8 13 C-8.66 12.67 -9.32 12.34 -10 12 C-9.44570312 11.38511719 -8.89140625 10.77023438 -8.3203125 10.13671875 C-7.59585938 9.32847656 -6.87140625 8.52023438 -6.125 7.6875 C-5.40570313 6.88699219 -4.68640625 6.08648437 -3.9453125 5.26171875 C-1.88394498 2.95810917 -1.88394498 2.95810917 0 0 Z " fill="#2D212E" transform="translate(219,197)"/>
<path d="M0 0 C2.0625 0.4375 2.0625 0.4375 4 1 C4.25 6.625 4.25 6.625 2 10 C1.01 10 0.02 10 -1 10 C-1.02689216 8.52093108 -1.04634621 7.04172517 -1.0625 5.5625 C-1.07410156 4.73878906 -1.08570313 3.91507813 -1.09765625 3.06640625 C-1 1 -1 1 0 0 Z " fill="#BCA791" transform="translate(170,142)"/>
<path d="M0 0 C0.99 0 1.98 0 3 0 C3 2.64 3 5.28 3 8 C1.02 8.99 1.02 8.99 -1 10 C-2 9 -2 9 -2.1875 5.5625 C-2 2 -2 2 0 0 Z " fill="#C0AB94" transform="translate(186,140)"/>
<path d="M0 0 C0.33 0 0.66 0 1 0 C-0.19528178 14.50065531 -0.19528178 14.50065531 -2 21 C-2.66 21.33 -3.32 21.66 -4 22 C-4.08109912 18.4316389 -3.90884179 15.43340232 -3 12 C-2.8452073 10.66767708 -2.70034911 9.33418243 -2.5625 8 C-2.21036256 4.95571506 -1.6500764 2.64012225 0 0 Z " fill="#0B0219" transform="translate(67,126)"/>
<path d="M0 0 C1.32 0 2.64 0 4 0 C4.125 3.375 4.125 3.375 4 7 C3.34 7.66 2.68 8.32 2 9 C1.01 9 0.02 9 -1 9 C-1.09765625 2.84765625 -1.09765625 2.84765625 -1 1 C-0.67 0.67 -0.34 0.34 0 0 Z " fill="#BFAA93" transform="translate(109,150)"/>
<path d="M0 0 C0.66 0.33 1.32 0.66 2 1 C-3.28 6.28 -8.56 11.56 -14 17 C-14.66 16.67 -15.32 16.34 -16 16 C-11.39354968 10.45786445 -6.51046931 5.63685832 -1 1 C-0.67 0.67 -0.34 0.34 0 0 Z " fill="#261C31" transform="translate(98,78)"/>
<path d="M0 0 C1.54078615 2.98440561 2.86973276 6.01007758 4.125 9.125 C4.47820312 9.99382812 4.83140625 10.86265625 5.1953125 11.7578125 C6 14 6 14 6 16 C5.34 16 4.68 16 4 16 C3.67 16.66 3.34 17.32 3 18 C2.49095343 16.12743583 1.99317545 14.25180659 1.5 12.375 C1.08234375 10.80878906 1.08234375 10.80878906 0.65625 9.2109375 C0.00881404 6.04312582 -0.1161292 3.22258533 0 0 Z " fill="#BDB1A4" transform="translate(66,163)"/>
<path d="M0 0 C0.99 0.33 1.98 0.66 3 1 C1.4972742 5.20763224 -1.23332995 6.8027758 -5 9 C-5.66 9 -6.32 9 -7 9 C-6.875 6.75 -6.875 6.75 -6 4 C-3.125 1.625 -3.125 1.625 0 0 Z " fill="#21172D" transform="translate(110,70)"/>
<path d="M0 0 C6.625 -0.25 6.625 -0.25 10 2 C10.1875 4.625 10.1875 4.625 10 7 C9.01 7 8.02 7 7 7 C5.62517293 5.36739286 4.29352333 3.69774938 3 2 C2.01 1.34 1.02 0.68 0 0 Z " fill="#1F1327" transform="translate(75,145)"/>
<path d="M0 0 C0 0.66 0 1.32 0 2 C-1.74784829 2.36463732 -3.49840502 2.7163078 -5.25 3.0625 C-6.71179688 3.35833984 -6.71179688 3.35833984 -8.203125 3.66015625 C-10.868119 3.98397535 -12.48871723 3.85503199 -15 3 C-9.63560356 0.31780178 -5.98993047 -0.3152595 0 0 Z " fill="#E3DEDE" transform="translate(144,64)"/>
<path d="M0 0 C1.32 0.33 2.64 0.66 4 1 C2.25 6.75 2.25 6.75 0 9 C-0.99 9 -1.98 9 -3 9 C-2.01 6.03 -1.02 3.06 0 0 Z " fill="#2D212C" transform="translate(228,179)"/>
<path d="M0 0 C0 3 0 3 -1.3125 4.60546875 C-1.869375 5.12753906 -2.42625 5.64960938 -3 6.1875 C-3.556875 6.71730469 -4.11375 7.24710938 -4.6875 7.79296875 C-5.120625 8.19128906 -5.55375 8.58960938 -6 9 C-5.67 9.66 -5.34 10.32 -5 11 C-7.475 12.485 -7.475 12.485 -10 14 C-10 11 -10 11 -9 8 C-7.1875 6.2109375 -7.1875 6.2109375 -5 4.375 C-4.278125 3.76398438 -3.55625 3.15296875 -2.8125 2.5234375 C-2.214375 2.02070313 -1.61625 1.51796875 -1 1 C-0.67 0.67 -0.34 0.34 0 0 Z " fill="#2B2133" transform="translate(208,210)"/>
<path d="M0 0 C-4.62 0.33 -9.24 0.66 -14 1 C-13 -1 -13 -1 -10.125 -2.1875 C-5.71128546 -3.33506578 -4.09128279 -2.0456414 0 0 Z " fill="#190F25" transform="translate(144,64)"/>
<path d="M0 0 C1.65 0.33 3.3 0.66 5 1 C4.67 2.32 4.34 3.64 4 5 C2.35 4.67 0.7 4.34 -1 4 C-0.67 2.68 -0.34 1.36 0 0 Z " fill="#2F2231" transform="translate(197,146)"/>
<path d="M0 0 C-0.33 1.32 -0.66 2.64 -1 4 C-2.65 3.67 -4.3 3.34 -6 3 C-6 2.01 -6 1.02 -6 0 C-3.50907189 -1.24546405 -2.58919267 -0.7767578 0 0 Z " fill="#211323" transform="translate(211,146)"/>
<path d="M0 0 C0.33 0 0.66 0 1 0 C1.33 3.63 1.66 7.26 2 11 C1.34 11 0.68 11 0 11 C-1.62651522 7.74696956 -1.11453156 4.60774398 -1 1 C-0.67 0.67 -0.34 0.34 0 0 Z " fill="#0C021A" transform="translate(64,157)"/>
<path d="M0 0 C2.475 0.495 2.475 0.495 5 1 C4.67 2.32 4.34 3.64 4 5 C2.68 4.67 1.36 4.34 0 4 C0 2.68 0 1.36 0 0 Z " fill="#2B1C15" transform="translate(215,144)"/>
<path d="M0 0 C1.65 0 3.3 0 5 0 C4.67 1.32 4.34 2.64 4 4 C2.35 3.67 0.7 3.34 -1 3 C-0.67 2.01 -0.34 1.02 0 0 Z " fill="#BEA993" transform="translate(76,158)"/>
<path d="M0 0 C-1.98 0.66 -3.96 1.32 -6 2 C-5.67 2.66 -5.34 3.32 -5 4 C-6.65 4.33 -8.3 4.66 -10 5 C-9.8125 3.125 -9.8125 3.125 -9 1 C-5.6868424 -0.8804408 -3.58825658 -1.32898392 0 0 Z " fill="#3C3346" transform="translate(137,62)"/>
<path d="M0 0 C2.97 0.495 2.97 0.495 6 1 C5.01 1.495 5.01 1.495 4 2 C4 2.66 4 3.32 4 4 C1.03 3.67 -1.94 3.34 -5 3 C-5 2.67 -5 2.34 -5 2 C-3.35 2 -1.7 2 0 2 C0 1.34 0 0.68 0 0 Z " fill="#CFCACD" transform="translate(172,58)"/>
<path d="M0 0 C1.65 0 3.3 0 5 0 C5.33 1.32 5.66 2.64 6 4 C4.35 3.67 2.7 3.34 1 3 C0.67 2.01 0.34 1.02 0 0 Z " fill="#382714" transform="translate(223,144)"/>
<path d="M0 0 C0.66 0 1.32 0 2 0 C2 2.97 2 5.94 2 9 C1.67 9 1.34 9 1 9 C0.67 7.35 0.34 5.7 0 4 C-0.99 4.66 -1.98 5.32 -3 6 C-1.125 1.125 -1.125 1.125 0 0 Z " fill="#A18E7F" transform="translate(141,147)"/>
<path d="M0 0 C1.1875 1.5625 1.1875 1.5625 2 4 C0.625 7.75 0.625 7.75 -1 11 C-1.33 11 -1.66 11 -2 11 C-1.125 3.375 -1.125 3.375 0 0 Z " fill="#B8972B" transform="translate(70,122)"/>
<path d="M0 0 C2 3 2 3 1.7578125 5.26171875 C1.54898438 6.06222656 1.34015625 6.86273438 1.125 7.6875 C0.92132813 8.49574219 0.71765625 9.30398437 0.5078125 10.13671875 C0.25644531 11.05904297 0.25644531 11.05904297 0 12 C-0.33 12 -0.66 12 -1 12 C-1.14285714 3.42857143 -1.14285714 3.42857143 0 0 Z " fill="#40374A" transform="translate(63,135)"/>
<path d="M0 0 C1.32 0.33 2.64 0.66 4 1 C3.01 2.485 3.01 2.485 2 4 C-0.625 4.1875 -0.625 4.1875 -3 4 C-2.01 2.68 -1.02 1.36 0 0 Z " fill="#190F26" transform="translate(124,64)"/>
<path d="M0 0 C0.66 0.33 1.32 0.66 2 1 C2 1.99 2 2.98 2 4 C0.02 4.66 -1.96 5.32 -4 6 C-3.67 4.35 -3.34 2.7 -3 1 C-2.01 0.67 -1.02 0.34 0 0 Z " fill="#30273B" transform="translate(181,229)"/>
<path d="M0 0 C0.33 0 0.66 0 1 0 C1 1.65 1 3.3 1 5 C-0.98 5.99 -0.98 5.99 -3 7 C-2.25 2.25 -2.25 2.25 0 0 Z " fill="#120920" transform="translate(232,174)"/>
<path d="M0 0 C0.33 0.99 0.66 1.98 1 3 C-0.25 4.5625 -0.25 4.5625 -2 6 C-4.1875 5.6875 -4.1875 5.6875 -6 5 C-4.06745228 2.9754262 -2.36841312 1.57894208 0 0 Z " fill="#271C2B" transform="translate(83,96)"/>
</svg>
