<?xml version="1.0" encoding="UTF-8"?>
<svg version="1.1" xmlns="http://www.w3.org/2000/svg" width="500" height="500">
<path d="M0 0 C165 0 330 0 500 0 C500 165 500 330 500 500 C335 500 170 500 0 500 C0 335 0 170 0 0 Z " fill="#0B0019" transform="translate(0,0)"/>
<path d="M0 0 C1.21945312 0.01804687 2.43890625 0.03609375 3.6953125 0.0546875 C43.67198767 1.86696344 82.80259205 23.67200267 109.484375 52.703125 C138.39853729 86.94897679 152.4363841 128.9419744 148.77734375 173.72509766 C148.18475146 178.89463078 147.18616288 183.93710965 146 189 C145.82839355 189.76038574 145.65678711 190.52077148 145.47998047 191.30419922 C139.37247001 217.90107007 127.9119336 241.27208981 110 262 C109.57315918 262.49532227 109.14631836 262.99064453 108.70654297 263.50097656 C102.39089875 270.77493609 95.70339906 277.17873983 88 283 C87.22148682 283.59893066 87.22148682 283.59893066 86.42724609 284.20996094 C56.85061684 306.84973511 20.9444259 317.01053367 -16 316 C-17.21945313 315.98195313 -18.43890625 315.96390625 -19.6953125 315.9453125 C-48.36207414 314.87424668 -79.42848142 303.7347646 -102 286 C-103.29550781 284.98873047 -103.29550781 284.98873047 -104.6171875 283.95703125 C-120.36822733 271.35173734 -120.36822733 271.35173734 -126.5078125 264.2578125 C-128.64035035 262.46022824 -130.64995464 262.26140261 -133.375 261.75 C-140.6417677 260.09003362 -146.62229738 256.76669685 -153 253 C-153.95003906 252.4740625 -154.90007812 251.948125 -155.87890625 251.40625 C-156.57886719 250.9421875 -157.27882813 250.478125 -158 250 C-158 249.34 -158 248.68 -158 248 C-152.06 247.67 -146.12 247.34 -140 247 C-142.2584375 243.2875 -142.2584375 243.2875 -144.5625 239.5 C-163.67841752 207.21437479 -171.89373543 169.14738575 -165 132 C-164.87641113 131.28602051 -164.75282227 130.57204102 -164.62548828 129.83642578 C-157.38716223 88.48584313 -133.208727 51.75816452 -98.96972656 27.62426758 C-80.44565089 14.92618442 -59.91577066 6.65446997 -38 2 C-37.00871094 1.77441406 -36.01742187 1.54882812 -34.99609375 1.31640625 C-23.51715346 -0.89990046 -11.63319949 -0.24295886 0 0 Z " fill="#C5B097" transform="translate(259,92)"/>
<path d="M0 0 C4.11669398 3.54587474 8.06797318 7.25161179 12 11 C12.7940625 11.72960937 13.588125 12.45921875 14.40625 13.2109375 C37.91822572 35.48108352 52.16890353 70.57498161 53.25390625 102.62890625 C54.02504987 146.74643884 39.20523653 185.77139987 9 218 C-6.8856803 234.3532152 -26.5947391 246.36530082 -48 254 C-49.05445313 254.37898438 -50.10890625 254.75796875 -51.1953125 255.1484375 C-65.29230217 259.84743406 -78.95767009 261.2633937 -93.75 261.3125 C-94.94496094 261.31797852 -96.13992187 261.32345703 -97.37109375 261.32910156 C-131.5969518 261.05612305 -163.80519692 247.71472879 -188.375 223.9375 C-191 221 -191 221 -191 219 C-190.20335937 218.62488281 -189.40671875 218.24976563 -188.5859375 217.86328125 C-181.64107768 214.63315804 -181.64107768 214.63315804 -175.625 210 C-174.325625 209.01 -174.325625 209.01 -173 208 C-168.60804223 209.10889146 -164.56417307 211.02923429 -160.4375 212.875 C-153.74156333 215.78098358 -147.06201047 218.14641374 -140 220 C-139.34483398 220.18336914 -138.68966797 220.36673828 -138.01464844 220.55566406 C-126.44791512 223.71022769 -115.05268817 224.37700634 -103.125 224.375 C-102.0821283 224.37771912 -102.0821283 224.37771912 -101.01818848 224.38049316 C-69.33005935 224.37114067 -38.02765659 215.11337355 -14 194 C-12.64261719 192.81277344 -12.64261719 192.81277344 -11.2578125 191.6015625 C4.92855193 176.4236943 14.21958458 155.80474634 15.31640625 133.69140625 C16.06235195 109.19387138 7.29821015 88.92445256 -8 70 C-8.639375 69.13375 -9.27875 68.2675 -9.9375 67.375 C-29.3627454 45.00653559 -60.30441633 31.81079108 -88.99707031 27.32470703 C-90.76132014 27.03869383 -92.51825421 26.70830677 -94.2734375 26.37109375 C-123.52375137 20.99475071 -155.36372941 27.2891185 -181 42 C-181.61069336 42.34933594 -182.22138672 42.69867188 -182.85058594 43.05859375 C-201.41108908 53.87977337 -217.0805295 69.76135317 -225 90 C-225.33 90 -225.66 90 -226 90 C-225.4841023 83.03891456 -223.98312056 77.0963117 -221.5625 70.5625 C-221.20833008 69.60456543 -220.85416016 68.64663086 -220.48925781 67.65966797 C-211.62891655 44.48676332 -196.38344279 22.6219705 -177 7 C-176.05640625 6.23042969 -175.1128125 5.46085937 -174.140625 4.66796875 C-124.77201747 -34.87764635 -50.63524822 -41.85544434 0 0 Z " fill="#FDCB01" transform="translate(339,133)"/>
<path d="M0 0 C1.21945312 0.01804687 2.43890625 0.03609375 3.6953125 0.0546875 C43.67198767 1.86696344 82.80259205 23.67200267 109.484375 52.703125 C138.39853729 86.94897679 152.4363841 128.9419744 148.77734375 173.72509766 C148.18475146 178.89463078 147.18616288 183.93710965 146 189 C145.82839355 189.76038574 145.65678711 190.52077148 145.47998047 191.30419922 C139.37247001 217.90107007 127.9119336 241.27208981 110 262 C109.57315918 262.49532227 109.14631836 262.99064453 108.70654297 263.50097656 C102.39089875 270.77493609 95.70339906 277.17873983 88 283 C87.22148682 283.59893066 87.22148682 283.59893066 86.42724609 284.20996094 C56.85061684 306.84973511 20.9444259 317.01053367 -16 316 C-17.21945313 315.98195313 -18.43890625 315.96390625 -19.6953125 315.9453125 C-48.36207414 314.87424668 -79.42848142 303.7347646 -102 286 C-103.29550781 284.98873047 -103.29550781 284.98873047 -104.6171875 283.95703125 C-120.36822733 271.35173734 -120.36822733 271.35173734 -126.5078125 264.2578125 C-128.64035035 262.46022824 -130.64995464 262.26140261 -133.375 261.75 C-140.6417677 260.09003362 -146.62229738 256.76669685 -153 253 C-153.95003906 252.4740625 -154.90007812 251.948125 -155.87890625 251.40625 C-156.57886719 250.9421875 -157.27882813 250.478125 -158 250 C-158 249.34 -158 248.68 -158 248 C-152.06 247.67 -146.12 247.34 -140 247 C-142.2584375 243.2875 -142.2584375 243.2875 -144.5625 239.5 C-163.67841752 207.21437479 -171.89373543 169.14738575 -165 132 C-164.87641113 131.28602051 -164.75282227 130.57204102 -164.62548828 129.83642578 C-157.38716223 88.48584313 -133.208727 51.75816452 -98.96972656 27.62426758 C-80.44565089 14.92618442 -59.91577066 6.65446997 -38 2 C-37.00871094 1.77441406 -36.01742187 1.54882812 -34.99609375 1.31640625 C-23.51715346 -0.89990046 -11.63319949 -0.24295886 0 0 Z M-99 50 C-99.92554688 50.79148438 -100.85109375 51.58296875 -101.8046875 52.3984375 C-112.26123866 61.58050597 -120.4867076 72.33548311 -128 84 C-128.37125 84.57250488 -128.7425 85.14500977 -129.125 85.73486328 C-134.64596872 94.41649075 -138.54537915 103.46408312 -142.0625 113.125 C-142.65417969 114.74390137 -142.65417969 114.74390137 -143.2578125 116.39550781 C-145.04653207 121.50361647 -146.21240681 125.53567155 -146 131 C-143.84787511 128.29604821 -142.3353965 125.71441112 -140.9375 122.5625 C-128.76504742 97.77894791 -104.5018107 82.3073832 -79.33203125 73.08984375 C-51.32337763 63.92874837 -20.20157684 62.79473753 8 72 C9.09570312 72.32484375 10.19140625 72.6496875 11.3203125 72.984375 C32.3731818 79.5103175 50.07149005 89.74152297 66 105 C66.9075 105.86625 67.815 106.7325 68.75 107.625 C69.4925 108.40875 70.235 109.1925 71 110 C71.433125 110.44988281 71.86625 110.89976562 72.3125 111.36328125 C81.518932 121.44532499 87.61235437 133.18863729 92 146 C92.3403125 146.93714844 92.680625 147.87429687 93.03125 148.83984375 C98.95942259 167.96917844 95.05147804 190.77593107 86.81640625 208.62890625 C71.58467572 236.89768786 45.35309547 252.31174923 15.49707031 261.31152344 C-17.06796507 270.29015071 -57.59534747 266.98877192 -87.28125 250.66015625 C-87.90064453 250.29672119 -88.52003906 249.93328613 -89.15820312 249.55883789 C-91.05376672 248.77800829 -91.05376672 248.77800829 -93.06860352 249.79272461 C-96.49124668 251.93214699 -99.87195188 254.12873614 -103.24609375 256.34375 C-105.78491089 257.87064144 -108.22132447 258.99140634 -111 260 C-103.21205572 276.92872395 -78.28155725 288.11632649 -62.00610352 294.21582031 C-27.70782088 306.62543425 10.80763031 305.34043865 44.04296875 290.1875 C58.55192371 283.32233004 71.43447273 275.14634836 83 264 C84.30677214 262.90976428 85.61890618 261.82590784 86.9375 260.75 C97.15063342 251.81350826 105.20130041 240.66446679 112 229 C112.35046387 228.40074707 112.70092773 227.80149414 113.06201172 227.18408203 C132.84516279 192.88051763 138.50569427 151.85719409 128.35058594 113.55029297 C125.19126161 102.40528205 120.55133781 92.14242844 115 82 C114.50757813 81.08863281 114.01515625 80.17726563 113.5078125 79.23828125 C97.36880865 50.9266389 71.28861137 31.00790112 41 20 C40.01902344 19.62101562 39.03804687 19.24203125 38.02734375 18.8515625 C-9.30669754 1.5326423 -62.30229314 18.12229046 -99 50 Z M-70 77 C-70.72928711 77.20898926 -71.45857422 77.41797852 -72.20996094 77.63330078 C-87.53010825 82.19653074 -102.03533382 89.31652432 -114 100 C-114.83917969 100.69738281 -115.67835938 101.39476562 -116.54296875 102.11328125 C-129.85382775 113.45066948 -140.49249141 130.44743986 -143 148 C-143.18725622 151.05271189 -143.1530746 153.9385081 -143 157 C-142.06027344 156.36771484 -142.06027344 156.36771484 -141.1015625 155.72265625 C-140.28429687 155.17480469 -139.46703125 154.62695312 -138.625 154.0625 C-137.40683594 153.24458984 -137.40683594 153.24458984 -136.1640625 152.41015625 C-132.22529349 149.84355767 -129.74299226 149.68380052 -125 150 C-119.77419355 152.22580645 -119.77419355 152.22580645 -118 154 C-117.95919217 155.99958364 -117.95745644 158.00045254 -118 160 C-119.98 160.495 -119.98 160.495 -122 161 C-122.66 159.35 -123.32 157.7 -124 156 C-127.2499712 154.97475672 -127.2499712 154.97475672 -131 155 C-133.73776176 157.12783003 -135.45419079 159.90838157 -137 163 C-137.40416554 168.25415201 -136.72773559 171.48874498 -134 176 C-132.05032721 178.39564928 -132.05032721 178.39564928 -128.4375 178.1875 C-125.17036305 178.39287806 -125.17036305 178.39287806 -124 177 C-123.95919217 175.00041636 -123.95745644 172.99954746 -124 171 C-126.31 171 -128.62 171 -131 171 C-130.67 170.01 -130.34 169.02 -130 168 C-126.53287889 166.84429296 -123.4585044 166.67164707 -119.8125 166.4375 C-118.54019531 166.35371094 -117.26789063 166.26992188 -115.95703125 166.18359375 C-114.98121094 166.12300781 -114.00539063 166.06242187 -113 166 C-112.505 166.99 -112.505 166.99 -112 168 C-112 164.7 -112 161.4 -112 158 C-110.00045254 157.95745644 -107.99958364 157.95919217 -106 158 C-105 159 -105 159 -104.90234375 162.59765625 C-104.9090178 164.08596867 -104.92097817 165.57426432 -104.9375 167.0625 C-104.94201172 167.82111328 -104.94652344 168.57972656 -104.95117188 169.36132812 C-104.9629932 171.24091871 -104.98092922 173.12046899 -105 175 C-102.56456459 174.85559248 -102.56456459 174.85559248 -100 174 C-96.28344427 168.53698256 -95.52353285 162.43230657 -96 156 C-93.69 156 -91.38 156 -89 156 C-89 155.01 -89 154.02 -89 153 C-86.64828869 153.59861742 -84.3140622 154.26924352 -82 155 C-81.67 155.66 -81.34 156.32 -81 157 C-78.3094472 155.77992056 -78.3094472 155.77992056 -76 154 C-68.92753623 153.30434783 -68.92753623 153.30434783 -65.5 155.875 C-63.36726014 160.31820803 -63.22519423 164.15746393 -64 169 C-65.65028036 172.30056072 -66.94199146 174.24915523 -69.9375 176.375 C-72.49213049 177.14913045 -74.34252593 177.33218426 -77 177 C-78.32 176.01 -79.64 175.02 -81 174 C-81 178.95 -81 183.9 -81 189 C-83.31 188.67 -85.62 188.34 -88 188 C-88.495 184.04 -88.495 184.04 -89 180 C-91.31 180 -93.62 180 -96 180 C-96.495 176.04 -96.495 176.04 -97 172 C-99.32472205 174.85306797 -100.7508258 177.54074837 -102 181 C-103.27875 181.061875 -104.5575 181.12375 -105.875 181.1875 C-106.95394531 181.23970703 -106.95394531 181.23970703 -108.0546875 181.29296875 C-108.69664062 181.19628906 -109.33859375 181.09960938 -110 181 C-112.02350324 177.96474514 -112.32124018 176.80573798 -112.625 173.3125 C-112.69976562 172.50425781 -112.77453125 171.69601562 -112.8515625 170.86328125 C-112.90054688 170.24839844 -112.94953125 169.63351562 -113 169 C-113.99 169 -114.98 169 -116 169 C-116 173.62 -116 178.24 -116 183 C-118.97 183.495 -118.97 183.495 -122 184 C-122.33 183.01 -122.66 182.02 -123 181 C-123.56847656 181.31324219 -124.13695312 181.62648438 -124.72265625 181.94921875 C-128.35728866 183.62626183 -132.01097117 184.08517499 -136 184 C-139.0625 182.5625 -139.0625 182.5625 -141 181 C-137.47948516 196.58561259 -127.53268322 213.67697996 -114.75 223.5 C-112 226 -112 226 -111.6875 228.75 C-116.44431826 240.52878806 -123.45428507 247.84566298 -135 253 C-135 253.33 -135 253.66 -135 254 C-125.13782132 256.2380959 -114.94966901 256.03087903 -106 251 C-103.23635948 248.76722828 -100.69489543 246.44576789 -98.19140625 243.92578125 C-95.9040999 241.91572416 -94.95496004 241.37825665 -92 241 C-89.9921875 241.64916992 -89.9921875 241.64916992 -87.875 242.73046875 C-87.09157227 243.11968506 -86.30814453 243.50890137 -85.50097656 243.90991211 C-84.6756543 244.33151611 -83.85033203 244.75312012 -83 245.1875 C-75.80453826 248.73535727 -68.73297935 251.79221152 -61 254 C-59.39898437 254.49306641 -59.39898437 254.49306641 -57.765625 254.99609375 C-37.95559907 260.27739734 -16.09828313 260.93066054 4 257 C5.12019531 256.80535156 6.24039063 256.61070312 7.39453125 256.41015625 C26.33857733 252.81695335 44.4896086 244.78469996 59 232 C59.84175781 231.30132812 60.68351563 230.60265625 61.55078125 229.8828125 C75.49748461 217.98896229 86.69770333 199.45192234 89 181 C89.92930414 169.35363801 89.92930414 169.35363801 88 158 C85.99983534 156.79117904 85.99983534 156.79117904 84 156 C84.165 155.3915625 84.33 154.783125 84.5 154.15625 C86.67757867 142.58786329 79.77488901 132.90704005 73.5625 123.625 C53.80966142 96.94526101 23.31818136 79.55006818 -9.3125 74.125 C-29.32980595 71.25218311 -50.49853415 71.37706298 -70 77 Z " fill="#46250D" transform="translate(259,92)"/>
<path d="M0 0 C1.21945312 0.01804687 2.43890625 0.03609375 3.6953125 0.0546875 C43.67198767 1.86696344 82.80259205 23.67200267 109.484375 52.703125 C138.39853729 86.94897679 152.4363841 128.9419744 148.77734375 173.72509766 C148.18475146 178.89463078 147.18616288 183.93710965 146 189 C145.82839355 189.76038574 145.65678711 190.52077148 145.47998047 191.30419922 C139.37247001 217.90107007 127.9119336 241.27208981 110 262 C109.57315918 262.49532227 109.14631836 262.99064453 108.70654297 263.50097656 C102.39089875 270.77493609 95.70339906 277.17873983 88 283 C87.22148682 283.59893066 87.22148682 283.59893066 86.42724609 284.20996094 C56.85061684 306.84973511 20.9444259 317.01053367 -16 316 C-17.21945313 315.98195313 -18.43890625 315.96390625 -19.6953125 315.9453125 C-48.36207414 314.87424668 -79.42848142 303.7347646 -102 286 C-103.29550781 284.98873047 -103.29550781 284.98873047 -104.6171875 283.95703125 C-109.73826332 279.85871986 -114.68967372 275.57613424 -119.5625 271.1875 C-120.33182861 270.50349121 -120.33182861 270.50349121 -121.11669922 269.80566406 C-123.73440863 267.41278318 -125.69086079 265.32319954 -127 262 C-123.79154028 261.40584079 -122.1049281 261.1933275 -119 262 C-116.34382936 264.15699374 -114.13973647 266.56680012 -111.81640625 269.078125 C-96.25992579 285.68504305 -73.65511257 296.9062304 -52 303 C-50.76765625 303.37253906 -49.5353125 303.74507813 -48.265625 304.12890625 C-12.17729123 313.95547986 28.50930167 305.65931802 60.52734375 287.69921875 C94.89910203 267.49846875 118.64607065 235.47915054 131 198 C131.32291016 197.02305176 131.32291016 197.02305176 131.65234375 196.02636719 C136.17819294 182.0420848 137.33758149 168.37074605 137.26074219 153.79492188 C137.24998154 151.37084129 137.26072561 148.94749639 137.2734375 146.5234375 C137.28198674 137.81998284 136.86527794 129.54007857 135 121 C134.83371094 120.20480957 134.66742188 119.40961914 134.49609375 118.59033203 C126.7715749 83.55305224 105.75801761 51.44512353 75.85546875 31.3671875 C64.32535193 24.1147223 52.13176077 17.70953694 39 14 C37.58284286 13.5053091 36.1662294 13.00905941 34.75 12.51171875 C20.12365016 7.6150712 4.26428155 7.31322227 -11 8 C-11.8353125 8.03722168 -12.670625 8.07444336 -13.53125 8.11279297 C-50.53404692 10.08579366 -83.83991822 27.42968516 -110 53 C-110.57226318 53.55107422 -111.14452637 54.10214844 -111.73413086 54.66992188 C-133.2195096 75.65986754 -147.15272587 104.76362935 -153 134 C-153.33644531 135.65128906 -153.33644531 135.65128906 -153.6796875 137.3359375 C-157.962411 162.97361106 -155.39991656 189.54875773 -147 214 C-146.30438554 216.32629856 -145.64929528 218.66014329 -145 221 C-143.35 221 -141.7 221 -140 221 C-141.75321958 213.77538018 -143.80003048 206.65091444 -145.87695312 199.51367188 C-146.13541016 198.61841797 -146.39386719 197.72316406 -146.66015625 196.80078125 C-146.89355713 195.99809814 -147.12695801 195.19541504 -147.36743164 194.3684082 C-148.67789432 189.46188623 -149.0998916 185.09447175 -149 180 C-148.67 180 -148.34 180 -148 180 C-147.70609375 181.12921875 -147.70609375 181.12921875 -147.40625 182.28125 C-142.24995244 200.59499649 -132.91888234 215.98887086 -119 229 C-122.79354688 237.1561258 -127.53873591 242.53205509 -136 246 C-138.640625 245.91796875 -138.640625 245.91796875 -141 245 C-143.58356939 242.07106915 -145.18930016 238.4467204 -147 235 C-147.62003906 233.88496094 -148.24007812 232.76992188 -148.87890625 231.62109375 C-165.18348459 201.47634851 -171.2614649 165.74035088 -165 132 C-164.87641113 131.28602051 -164.75282227 130.57204102 -164.62548828 129.83642578 C-157.38716223 88.48584313 -133.208727 51.75816452 -98.96972656 27.62426758 C-80.44565089 14.92618442 -59.91577066 6.65446997 -38 2 C-37.00871094 1.77441406 -36.01742187 1.54882812 -34.99609375 1.31640625 C-23.51715346 -0.89990046 -11.63319949 -0.24295886 0 0 Z " fill="#F5F1F0" transform="translate(259,92)"/>
<path d="M0 0 C39.2646824 -1.22485472 74.76638681 12.28941626 103.46948242 38.98510742 C127.68729237 61.9789416 145.76034784 96.17308016 146.83569336 129.99047852 C146.91619266 133.87222789 146.94233653 137.75322826 146.95166016 141.63574219 C146.9612934 144.04935145 146.99235862 146.46208047 147.02392578 148.87548828 C147.12104853 163.01159071 145.22860113 176.48208302 141.02392578 190.02001953 C140.77046387 190.84646973 140.51700195 191.67291992 140.25585938 192.52441406 C132.31264749 217.52623334 118.76757111 238.279401 100.71142578 257.08251953 C100.17864014 257.63866943 99.64585449 258.19481934 99.09692383 258.76782227 C83.92298981 274.31451705 64.86247402 285.29800701 44.71142578 293.08251953 C43.80134766 293.44861328 42.89126953 293.81470703 41.95361328 294.19189453 C16.39487565 303.65809365 -17.19541751 305.30148284 -43.28857422 297.08251953 C-44.09214355 296.84114258 -44.89571289 296.59976562 -45.72363281 296.35107422 C-69.93965753 288.96502409 -92.01921267 275.78568416 -109.28857422 257.08251953 C-109.28857422 256.42251953 -109.28857422 255.76251953 -109.28857422 255.08251953 C-106.78857422 254.14501953 -106.78857422 254.14501953 -103.28857422 254.08251953 C-101.22230303 255.42095524 -99.5835018 257.02485041 -97.80029297 258.72314453 C-68.61093838 286.1420717 -33.20119382 295.26315472 6.05908203 294.26171875 C37.62507782 292.71295933 69.1151014 277.86121375 91.71142578 256.08251953 C93.03887393 254.97128453 94.37181209 253.86655816 95.71142578 252.77001953 C121.54707443 230.15722276 137.6776618 192.62717116 140.42626953 158.86376953 C142.38898148 128.77306037 137.21386427 101.5788254 122.71142578 75.08251953 C122.21900391 74.17115234 121.72658203 73.25978516 121.21923828 72.32080078 C105.30092196 44.39629672 79.5924182 24.9422782 49.71142578 14.08251953 C48.73044922 13.70353516 47.74947266 13.32455078 46.73876953 12.93408203 C15.70859508 1.58053815 -21.70411627 5.16636986 -51.48168945 18.5690918 C-65.78828617 25.30888588 -78.33464142 33.7395302 -90.28857422 44.08251953 C-91.14064453 44.80052734 -91.99271484 45.51853516 -92.87060547 46.25830078 C-103.08264409 55.08991022 -111.00515192 65.77487996 -118.28857422 77.08251953 C-118.65982422 77.65502441 -119.03107422 78.2275293 -119.41357422 78.81738281 C-130.7817028 96.69356764 -137.07411414 117.2627863 -140.28857422 138.08251953 C-140.57667969 139.84789062 -140.57667969 139.84789062 -140.87060547 141.64892578 C-143.47025374 163.00491488 -139.81844806 185.89659283 -132.03857422 205.83251953 C-131.09984231 208.64871525 -130.97034814 211.13892829 -131.28857422 214.08251953 C-132.93857422 214.08251953 -134.58857422 214.08251953 -136.28857422 214.08251953 C-152.15333327 179.75222125 -151.01067145 138.29055111 -138.56982422 103.09423828 C-130.49649728 81.36487459 -118.16281467 62.88722167 -102.28857422 46.08251953 C-101.59376953 45.33486328 -100.89896484 44.58720703 -100.18310547 43.81689453 C-74.29209945 16.84120156 -37.09420111 1.33751227 0 0 Z " fill="#140921" transform="translate(250.28857421875,98.91748046875)"/>
<path d="M0 0 C3.27191292 1.35815253 5.49895506 2.49895506 8 5 C8.125 8.125 8.125 8.125 8 11 C6.35 11.33 4.7 11.66 3 12 C2.814375 11.360625 2.62875 10.72125 2.4375 10.0625 C1.06247134 7.64201916 1.06247134 7.64201916 -2.375 6.9375 C-6.11946183 6.58798465 -6.11946183 6.58798465 -8.375 9.3125 C-10.95563436 13.58047221 -11.3374759 15.93786148 -11 21 C-9.45368716 24.78847957 -9.45368716 24.78847957 -7 28 C-4.66702567 28.04092937 -2.33294775 28.04241723 0 28 C0.33 26.02 0.66 24.04 1 22 C-1.31 22 -3.62 22 -6 22 C-5.6875 20.0625 -5.6875 20.0625 -5 18 C-1.43954823 16.81318274 1.43808337 16.90310168 5.1875 16.9375 C6.45980469 16.94652344 7.73210937 16.95554687 9.04296875 16.96484375 C10.50669922 16.98224609 10.50669922 16.98224609 12 17 C11.979375 15.700625 11.95875 14.40125 11.9375 13.0625 C11.91600546 11.70834367 11.92851801 10.35243917 12 9 C13 8 13 8 15.9375 7.8125 C19 8 19 8 21 10 C20.98252073 12.75589777 20.86136729 15.38786676 20.625 18.125 C20.53992188 19.25615234 20.53992188 19.25615234 20.453125 20.41015625 C20.3115535 22.27418096 20.15700041 24.13721137 20 26 C21.94676384 25.84951809 21.94676384 25.84951809 24 25 C27.3565966 19.53354268 28.53272556 13.30820489 29 7 C31.31 7 33.62 7 36 7 C36 6.01 36 5.02 36 4 C38.31 4.33 40.62 4.66 43 5 C43.495 6.485 43.495 6.485 44 8 C44.66 7.34 45.32 6.68 46 6 C49.33230838 3.77846108 51.13850144 3.26218191 55.0625 3.5 C57.83394648 4.21521199 59.52764951 5.69929862 61.15234375 8.0234375 C62.84504752 11.97047947 62.73334893 15.82398523 62 20 C59.82660072 24.42729482 57.53503435 27.00900931 53 29 C50.375 29.375 50.375 29.375 48 29 C47.01 28.01 46.02 27.02 45 26 C44.67 30.62 44.34 35.24 44 40 C41.69 40 39.38 40 37 40 C36 39 36 39 35.90234375 37.15234375 C35.93489583 35.1015625 35.96744792 33.05078125 36 31 C33.69 31 31.38 31 29 31 C28.34 29.02 27.68 27.04 27 25 C26.071875 26.7015625 26.071875 26.7015625 25.125 28.4375 C23.25 31.875 23.25 31.875 21 33 C15.73111292 33.5605199 15.73111292 33.5605199 13.125 31.5625 C11.4505849 27.74855449 11.76321893 24.10420515 12 20 C11.01 20 10.02 20 9 20 C9.12568359 21.49853516 9.12568359 21.49853516 9.25390625 23.02734375 C9.35574219 24.31769531 9.45757812 25.60804688 9.5625 26.9375 C9.66691406 28.22527344 9.77132812 29.51304687 9.87890625 30.83984375 C9.91886719 31.88269531 9.95882812 32.92554688 10 34 C9 35 9 35 5.9375 35.0625 C4.968125 35.041875 3.99875 35.02125 3 35 C2.67 34.34 2.34 33.68 2 33 C1.42894531 33.309375 0.85789063 33.61875 0.26953125 33.9375 C-3.43010818 35.66951708 -6.91593787 36.39878048 -11 36 C-15.77228904 33.46078206 -18.39412552 30.13132917 -20 25 C-20.83355757 18.74030324 -21.19512458 12.76831674 -17.4375 7.4375 C-12.54618349 2.0065312 -7.54523853 -0.96030309 0 0 Z " fill="#13081E" transform="translate(134,241)"/>
<path d="M0 0 C4.11669398 3.54587474 8.06797318 7.25161179 12 11 C12.7940625 11.72960937 13.588125 12.45921875 14.40625 13.2109375 C37.91822572 35.48108352 52.16890353 70.57498161 53.25390625 102.62890625 C53.55586608 119.99304845 52.05425007 136.36513813 47 153 C45.54559727 149.10875032 46.51163861 146.21680167 47.4375 142.25 C49.2328848 133.43784552 49.31468459 124.64022221 49.3125 115.6875 C49.31563202 115.00312866 49.31876404 114.31875732 49.32199097 113.61364746 C49.42709486 77.20304331 34.01084767 44.88139781 9.56640625 18.5625 C-18.11706252 -9.07883259 -54.03076306 -21.38125125 -92.53125 -21.44073486 C-105.47622501 -21.41210541 -117.5898832 -19.76351911 -130 -16 C-130.74088867 -15.77538086 -131.48177734 -15.55076172 -132.24511719 -15.31933594 C-146.43201398 -10.83410902 -160.8218688 -3.90427009 -172 6 C-172.66 5.67 -173.32 5.34 -174 5 C-126.20304633 -36.27407529 -49.63769119 -41.03085684 0 0 Z " fill="#F7F2EC" transform="translate(339,133)"/>
<path d="M0 0 C3.5625 0.5625 3.5625 0.5625 6.5 2.3125 C9.6294188 7.24370539 9.40858065 11.87837634 8.5625 17.5625 C7.07736352 21.33301641 4.94790964 23.30556024 1.5625 25.5625 C-0.76949388 25.64155064 -3.10582622 25.65048769 -5.4375 25.5625 C-6.0975 24.2425 -6.7575 22.9225 -7.4375 21.5625 C-8.0975 21.5625 -8.7575 21.5625 -9.4375 21.5625 C-9.31181641 23.16931641 -9.31181641 23.16931641 -9.18359375 24.80859375 C-9.08045104 26.20570866 -8.97760157 27.60284524 -8.875 29 C-8.81892578 29.70705078 -8.76285156 30.41410156 -8.70507812 31.14257812 C-8.57559007 32.94677837 -8.50228392 34.75481952 -8.4375 36.5625 C-9.4375 37.5625 -9.4375 37.5625 -12.375 37.8125 C-13.385625 37.73 -14.39625 37.6475 -15.4375 37.5625 C-17.72763653 34.1272952 -17.61592973 32.577169 -17.4375 28.5625 C-19.4175 28.5625 -21.3975 28.5625 -23.4375 28.5625 C-24.4275 26.5825 -25.4175 24.6025 -26.4375 22.5625 C-26.870625 23.325625 -27.30375 24.08875 -27.75 24.875 C-30.5175 29.2825 -30.5175 29.2825 -32.4375 30.5625 C-36.08484979 30.33919287 -37.82122835 30.17877165 -40.4375 27.5625 C-40.66455078 25.31591797 -40.66455078 25.31591797 -40.6328125 22.5546875 C-40.62636719 21.56855469 -40.61992187 20.58242187 -40.61328125 19.56640625 C-40.59652344 18.53386719 -40.57976562 17.50132812 -40.5625 16.4375 C-40.55347656 15.39722656 -40.54445312 14.35695312 -40.53515625 13.28515625 C-40.51153747 10.71070908 -40.47860149 8.13671788 -40.4375 5.5625 C-37.0625 5.4375 -37.0625 5.4375 -33.4375 5.5625 C-31.4375 7.5625 -31.4375 7.5625 -31.25 11.25 C-31.34120033 15.08742934 -31.80690667 18.77894004 -32.4375 22.5625 C-30.47368585 22.37064023 -30.47368585 22.37064023 -28.4375 21.5625 C-25.34942844 16.22097081 -24.91567206 9.58746796 -24.4375 3.5625 C-22.43795254 3.51995644 -20.43708364 3.52169217 -18.4375 3.5625 C-18.1075 3.8925 -17.7775 4.2225 -17.4375 4.5625 C-17.1075 3.5725 -16.7775 2.5825 -16.4375 1.5625 C-10.89903846 1.19326923 -10.89903846 1.19326923 -8.5625 3.0625 C-8.19125 3.5575 -7.82 4.0525 -7.4375 4.5625 C-6.921875 3.9025 -6.40625 3.2425 -5.875 2.5625 C-3.4375 0.5625 -3.4375 0.5625 0 0 Z " fill="#14091F" transform="translate(288.4375,231.4375)"/>
<path d="M0 0 C5.75 -0.125 5.75 -0.125 8 1 C8.31241455 3.71446979 8.51336592 6.33909361 8.625 9.0625 C8.68300781 10.20041992 8.68300781 10.20041992 8.7421875 11.36132812 C8.83673562 13.24047195 8.91946756 15.12020336 9 17 C9.39832031 16.51789063 9.79664063 16.03578125 10.20703125 15.5390625 C10.73683594 14.90742188 11.26664063 14.27578125 11.8125 13.625 C12.33457031 12.99851563 12.85664063 12.37203125 13.39453125 11.7265625 C15.88387164 9.04946164 17.44751056 8.03314937 21.125 7.8125 C24 8 24 8 25 9 C25.08713831 10.70772358 25.10700007 12.41898649 25.09765625 14.12890625 C25.09443359 15.16337891 25.09121094 16.19785156 25.08789062 17.26367188 C25.07532227 18.8965918 25.07532227 18.8965918 25.0625 20.5625 C25.05798828 21.65498047 25.05347656 22.74746094 25.04882812 23.87304688 C25.03699826 26.58208495 25.02051543 29.29101599 25 32 C21.535 32.495 21.535 32.495 18 33 C15.47224649 29.20836973 15.77556965 26.19125969 15.875 21.8125 C15.88402344 21.06291016 15.89304688 20.31332031 15.90234375 19.54101562 C15.92587422 17.69387346 15.96174439 15.84689588 16 14 C10.88511079 18.84568452 8.87828833 21.66302208 8.4375 28.6875 C8.09915014 33.90084986 8.09915014 33.90084986 7 35 C4.0625 35.1875 4.0625 35.1875 1 35 C0.34 34.34 -0.32 33.68 -1 33 C-1.5775 33.474375 -2.155 33.94875 -2.75 34.4375 C-7.76769547 37.92201074 -14.10747546 37.62760616 -20 37 C-23.1875 35.3125 -23.1875 35.3125 -25 33 C-25.4375 30.375 -25.4375 30.375 -25 28 C-23 26 -23 26 -20.375 25.875 C-19.59125 25.91625 -18.8075 25.9575 -18 26 C-17.34 27.32 -16.68 28.64 -16 30 C-14.02 30 -12.04 30 -10 30 C-10 28.35 -10 26.7 -10 25 C-10.90363281 24.54109375 -11.80726563 24.0821875 -12.73828125 23.609375 C-13.9299477 22.99008377 -15.12133966 22.37026415 -16.3125 21.75 C-17.48425781 21.14671875 -18.65601563 20.5434375 -19.86328125 19.921875 C-22.80351757 18.12038525 -24.35239969 16.98333341 -26 14 C-26.1875 10.5625 -26.1875 10.5625 -25 7 C-21.82392612 3.46119902 -18.38176887 2.17272111 -13.71875 1.58984375 C-4.01214163 1.33843385 -4.01214163 1.33843385 0 5 C-0.33 6.65 -0.66 8.3 -1 10 C-2.65 10.33 -4.3 10.66 -6 11 C-6.33 10.01 -6.66 9.02 -7 8 C-9.64 8 -12.28 8 -15 8 C-15.49159242 10.34305619 -15.49159242 10.34305619 -15 13 C-12.42319442 15.07971617 -12.42319442 15.07971617 -9.125 16.6875 C-3.10126582 19.89873418 -3.10126582 19.89873418 -1 22 C-0.02700844 17.14270355 0.12038805 12.5499375 0.0625 7.625 C0.05798828 6.88894531 0.05347656 6.15289062 0.04882812 5.39453125 C0.03715142 3.59631842 0.01922011 1.79814803 0 0 Z " fill="#12061D" transform="translate(222,230)"/>
<path d="M0 0 C2.17578125 1.6796875 2.17578125 1.6796875 4.3125 3.875 C27.60677621 25.84017336 60.54164111 36.45605011 92.06884766 36.26074219 C94.13083014 36.24996954 96.19194893 36.26074252 98.25390625 36.2734375 C106.35247357 36.28183606 114.06709865 35.65543943 122 34 C122.96671631 33.79834229 123.93343262 33.59668457 124.92944336 33.38891602 C143.0871448 29.4139199 161.54265475 21.80191449 176 10 C176.99 10.495 176.99 10.495 178 11 C165.38549414 21.85350647 150.55087311 29.34585195 135 35 C133.90300781 35.39960938 132.80601562 35.79921875 131.67578125 36.2109375 C117.64971631 40.89215867 103.96534355 42.26364927 89.25 42.3125 C88.05503906 42.31797852 86.86007813 42.32345703 85.62890625 42.32910156 C51.4030482 42.05612305 19.19480308 28.71472879 -5.375 4.9375 C-8 2 -8 2 -8 0 C-5.03105955 -1.48447022 -3.16849852 -0.81082074 0 0 Z " fill="#F7F2EB" transform="translate(156,352)"/>
<path d="M0 0 C2.31 0.33 4.62 0.66 7 1 C7.33 1.99 7.66 2.98 8 4 C8.66 3.34 9.32 2.68 10 2 C13.33230838 -0.22153892 15.13850144 -0.73781809 19.0625 -0.5 C21.83394648 0.21521199 23.52764951 1.69929862 25.15234375 4.0234375 C26.84504752 7.97047947 26.73334893 11.82398523 26 16 C23.82660072 20.42729482 21.53503435 23.00900931 17 25 C14.375 25.375 14.375 25.375 12 25 C11.01 24.01 10.02 23.02 9 22 C8.67 26.62 8.34 31.24 8 36 C5.69 36 3.38 36 1 36 C0 35 0 35 -0.09765625 33.15234375 C-0.04882812 30.07617188 -0.04882812 30.07617188 0 27 C-2.31 27 -4.62 27 -7 27 C-8.78372771 21.12419106 -9.06045269 16.99386302 -8 11 C-7.80492035 9.50096692 -7.61719184 8.00095539 -7.4375 6.5 C-7.293125 5.345 -7.14875 4.19 -7 3 C-4.69 3 -2.38 3 0 3 C0 2.01 0 1.02 0 0 Z " fill="#13081F" transform="translate(170,245)"/>
<path d="M0 0 C2.9375 1.8125 2.9375 1.8125 5 5 C5.92681555 10.27634467 5.77420156 15.26551139 3.25 20.0625 C0.09576138 24.18053375 0.09576138 24.18053375 -3 25 C-6.0625 25.3125 -6.0625 25.3125 -9 25 C-9.99 24.01 -10.98 23.02 -12 22 C-12 26.62 -12 31.24 -12 36 C-14.64 36 -17.28 36 -20 36 C-21.51322577 32.97354845 -21.00453618 29.89228139 -20.87890625 26.5859375 C-20.85529526 25.85629791 -20.83168427 25.12665833 -20.80735779 24.37490845 C-20.73070246 22.04140861 -20.64668657 19.70823911 -20.5625 17.375 C-20.50928115 15.79428707 -20.45654074 14.21355795 -20.40429688 12.6328125 C-20.27508487 8.75499862 -20.13927041 4.87746514 -20 1 C-17.69 1 -15.38 1 -13 1 C-12.67 1.99 -12.34 2.98 -12 4 C-11.319375 3.34 -10.63875 2.68 -9.9375 2 C-6.23727467 -0.51930235 -4.3968344 -0.7066341 0 0 Z " fill="#12071E" transform="translate(318,229)"/>
<path d="M0 0 C2.31 0 4.62 0 7 0 C7.33 0.99 7.66 1.98 8 3 C8.66 3.33 9.32 3.66 10 4 C9.83886719 4.56847656 9.67773438 5.13695312 9.51171875 5.72265625 C8.26463289 11.27266432 8.36246404 16.88977407 11 22 C10.01 21.67 9.02 21.34 8 21 C8 25.62 8 30.24 8 35 C5.36 35 2.72 35 0 35 C-1.51322577 31.97354845 -1.00453618 28.89228139 -0.87890625 25.5859375 C-0.85529526 24.85629791 -0.83168427 24.12665833 -0.80735779 23.37490845 C-0.73070246 21.04140861 -0.64668657 18.70823911 -0.5625 16.375 C-0.50928115 14.79428707 -0.45654074 13.21355795 -0.40429688 11.6328125 C-0.27508487 7.75499862 -0.13927041 3.87746514 0 0 Z " fill="#10041C" transform="translate(298,230)"/>
<path d="M0 0 C3.375 -0.125 3.375 -0.125 7 0 C9 2 9 2 9.1875 5.6875 C9.09629967 9.52492934 8.63059333 13.21644004 8 17 C9.97536745 16.65213292 9.97536745 16.65213292 12 16 C12.33 15.34 12.66 14.68 13 14 C13.99 14 14.98 14 16 14 C16 15.98 16 17.96 16 20 C15.34 19.01 14.68 18.02 14 17 C13.566875 17.763125 13.13375 18.52625 12.6875 19.3125 C9.92 23.72 9.92 23.72 8 25 C4.35265021 24.77669287 2.61627165 24.61627165 0 22 C-0.22705078 19.75341797 -0.22705078 19.75341797 -0.1953125 16.9921875 C-0.18886719 16.00605469 -0.18242187 15.01992187 -0.17578125 14.00390625 C-0.15902344 12.97136719 -0.14226562 11.93882812 -0.125 10.875 C-0.11597656 9.83472656 -0.10695312 8.79445312 -0.09765625 7.72265625 C-0.07403747 5.14820908 -0.04110149 2.57421788 0 0 Z " fill="#14091F" transform="translate(248,237)"/>
<path d="M0 0 C3.625 0.25 3.625 0.25 5.33325195 1.4465332 C7.06395107 3.86283908 6.96919613 5.40135655 6.91796875 8.35546875 C6.90830078 9.33837891 6.89863281 10.32128906 6.88867188 11.33398438 C6.86353516 12.35814453 6.83839844 13.38230469 6.8125 14.4375 C6.79896484 15.47326172 6.78542969 16.50902344 6.77148438 17.57617188 C6.73611389 20.13463699 6.68675544 22.6920578 6.625 25.25 C1.22643962 25.72987203 1.22643962 25.72987203 -1.2109375 23.78515625 C-2.89450551 20.11859371 -2.90563886 16.68099832 -3 12.6875 C-3.12094814 6.88611532 -3.12094814 6.88611532 -4.375 1.25 C-3.375 0.25 -3.375 0.25 0 0 Z " fill="#180B17" transform="translate(373.375,209.75)"/>
<path d="M0 0 C7.08932806 -0.72094862 7.08932806 -0.72094862 11 2.375 C13.93187087 6.56906613 13.86094479 11.09739775 13 16 C10.82660072 20.42729482 8.53503435 23.00900931 4 25 C1.4375 25.5 1.4375 25.5 -1 25 C-3.3125 22.5 -3.3125 22.5 -5 20 C-4.34 19.67 -3.68 19.34 -3 19 C-3 19.66 -3 20.32 -3 21 C1.43419985 20.02261169 1.43419985 20.02261169 4.375 16.8125 C5.26242809 12.81907359 5.87549425 8.75098851 4 5 C2.35 5 0.7 5 -1 5 C-0.67 3.35 -0.34 1.7 0 0 Z " fill="#11061D" transform="translate(183,245)"/>
<path d="M0 0 C3.5625 0.625 3.5625 0.625 6.5 2.375 C9.6294188 7.30620539 9.40858065 11.94087634 8.5625 17.625 C7.07736352 21.39551641 4.94790964 23.36806024 1.5625 25.625 C-0.76949388 25.70405064 -3.10582622 25.71298769 -5.4375 25.625 C-5.4375 24.635 -5.4375 23.645 -5.4375 22.625 C-4.81875 22.58375 -4.2 22.5425 -3.5625 22.5 C-1.17803106 21.79020874 -1.17803106 21.79020874 -0.1875 19.125 C0.72076951 14.88640893 0.73505873 10.9389683 0.5625 6.625 C-2.20014289 6.02767181 -4.59782769 5.625 -7.4375 5.625 C-5.20503025 2.0530484 -4.23147122 0.7693584 0 0 Z " fill="#10051D" transform="translate(288.4375,231.375)"/>
<path d="M0 0 C2.59437475 3.1132497 4.91797457 6.33599152 7.1875 9.6875 C10.47110123 14.4352178 14.1485066 18.65321792 18.08203125 22.87109375 C20 25 20 25 22 28 C20.02 30.97 20.02 30.97 18 34 C14.54631329 32.8487711 14.36265208 32.39906864 12.6953125 29.3515625 C12.27878418 28.5982666 11.86225586 27.8449707 11.43310547 27.06884766 C10.78559326 25.85914307 10.78559326 25.85914307 10.125 24.625 C9.68172363 23.80950684 9.23844727 22.99401367 8.78173828 22.15380859 C0 5.85224297 0 5.85224297 0 0 Z " fill="#F9C908" transform="translate(118,294)"/>
<path d="M0 0 C0.33 0 0.66 0 1 0 C1.02726927 2.35424675 1.04696719 4.70816962 1.0625 7.0625 C1.07410156 8.37347656 1.08570313 9.68445313 1.09765625 11.03515625 C1.00452335 14.8163519 0.61448726 18.27920707 0 22 C-2.46526273 20.53838178 -4.92451197 19.06833578 -7.375 17.58203125 C-8.90326363 16.66097951 -10.44091101 15.75457102 -12 14.88671875 C-13.625 13.9375 -13.625 13.9375 -16 12 C-16.4375 9.3125 -16.4375 9.3125 -16 7 C-15 6 -15 6 -12.125 5.75 C-8.51434226 6.03885262 -8.39214527 6.60785473 -6 9 C-3.34533951 8.76956136 -3.34533951 8.76956136 -1 8 C-0.67 5.36 -0.34 2.72 0 0 Z " fill="#BBA690" transform="translate(222,231)"/>
<path d="M0 0 C4.875 0.875 4.875 0.875 6 2 C6.61428132 7.61122362 6.32342182 12.25225454 3 17 C0.8125 17.875 0.8125 17.875 -1 18 C-3.63574873 15.36425127 -4.01066083 13.90557548 -4.4375 10.125 C-4.29740918 5.72450018 -2.70982836 3.38728545 0 0 Z " fill="#BCA791" transform="translate(284,236)"/>
<path d="M0 0 C1.53597454 3.07194908 1.2265038 5.60244293 1 9 C-1.22580645 14.22580645 -1.22580645 14.22580645 -3 16 C-4.66617115 16.04063832 -6.33388095 16.042721 -8 16 C-9.22485812 13.55028376 -9.16722808 11.85765539 -9.1875 9.125 C-9.20167969 8.26132812 -9.21585938 7.39765625 -9.23046875 6.5078125 C-8.98522656 3.83924491 -8.4364726 2.24795361 -7 0 C-4.30234372 -1.34882814 -2.84835666 -0.80338265 0 0 Z " fill="#BDA992" transform="translate(188,250)"/>
<path d="M0 0 C2.4375 0.375 2.4375 0.375 5 1 C6.6033559 4.2067118 6.49604443 7.52124682 6 11 C4.88843696 13.31049784 3.61720298 14.97849628 2 17 C-0.4375 16.625 -0.4375 16.625 -3 16 C-4.72617094 12.54765812 -4.50110436 8.77455234 -4 5 C-2 1.9375 -2 1.9375 0 0 Z " fill="#BFAA93" transform="translate(310,233)"/>
<path d="M0 0 C0.66 0.33 1.32 0.66 2 1 C-10.89473569 12.09461589 -28.93275294 23.32083912 -46 26 C-45.97265625 24.171875 -45.97265625 24.171875 -45 22 C-42.45269812 20.8868933 -40.08435459 20.04324959 -37.4375 19.25 C-25.10971046 15.22734383 -9.32162882 9.32162882 0 0 Z " fill="#F2EADA" transform="translate(332,362)"/>
<path d="M0 0 C0.99 0 1.98 0 3 0 C3.46947307 16.22290291 1.71965282 31.46638538 -3 47 C-4.46595777 43.11032539 -3.47805642 39.78488081 -2.625 35.875 C-0.25765228 24.0516136 -0.25087239 12.01831231 0 0 Z " fill="#EDE4CB" transform="translate(389,239)"/>
<path d="M0 0 C1 1 1 1 1.1875 3.4375 C1 6 1 6 -1 8 C-4.29714793 7.67028521 -5.6226839 7.3773161 -8 5 C-7.75 2.4375 -7.75 2.4375 -7 0 C-4.31633121 -1.3418344 -2.84719317 -0.73004953 0 0 Z " fill="#1A0E23" transform="translate(335,244)"/>
<path d="M0 0 C2.9375 0.1875 2.9375 0.1875 3.9375 1.1875 C4.125 3.625 4.125 3.625 3.9375 6.1875 C3.2775 6.8475 2.6175 7.5075 1.9375 8.1875 C-1.1875 7.8125 -1.1875 7.8125 -4.0625 7.1875 C-4.6875 4.8125 -4.6875 4.8125 -5.0625 2.1875 C-3.0625 0.1875 -3.0625 0.1875 0 0 Z " fill="#190B17" transform="translate(362.0625,239.8125)"/>
<path d="M0 0 C0.66 0.33 1.32 0.66 2 1 C-3.57067019 5.79299828 -9.55449515 9.66492047 -15.875 13.375 C-16.62450928 13.81569824 -17.37401855 14.25639648 -18.14624023 14.71044922 C-21.10317958 16.42354087 -23.74529742 17.91509914 -27 19 C-26.70288086 17.1184082 -26.70288086 17.1184082 -26 15 C-23.52304013 13.55436157 -21.16574741 12.3541492 -18.5625 11.1875 C-11.88026959 8.04046208 -5.87384815 4.51834473 0 0 Z " fill="#EEE6D5" transform="translate(332,362)"/>
<path d="M0 0 C2.625 0.375 2.625 0.375 5 1 C5.125 3.375 5.125 3.375 5 6 C4.34 6.66 3.68 7.32 3 8 C-0.125 7.625 -0.125 7.625 -3 7 C-2.25 2.25 -2.25 2.25 0 0 Z " fill="#0E021A" transform="translate(346,242)"/>
<path d="M0 0 C5.53846154 0.61538462 5.53846154 0.61538462 7.875 2.5625 C8.431875 3.2740625 8.431875 3.2740625 9 4 C8.67 4.99 8.34 5.98 8 7 C2.56193353 7.36253776 2.56193353 7.36253776 0.0625 5.75 C-1 4 -1 4 -0.6875 1.8125 C-0.460625 1.214375 -0.23375 0.61625 0 0 Z " fill="#1A0D17" transform="translate(373,239)"/>
<path d="M0 0 C-1.45332997 4.35998992 -4.82629067 5.35034462 -8.6875 7.375 C-13.97207989 10.16395026 -18.52888695 13.01472443 -23 17 C-23.66 16.67 -24.32 16.34 -25 16 C-6.14893617 0 -6.14893617 0 0 0 Z " fill="#EDE3CE" transform="translate(190,122)"/>
<path d="M0 0 C0.66 0.33 1.32 0.66 2 1 C-4.6 7.6 -11.2 14.2 -18 21 C-18.66 20.67 -19.32 20.34 -20 20 C-13.97501417 13.25511696 -7.98873663 6.77411663 -1 1 C-0.67 0.67 -0.34 0.34 0 0 Z " fill="#E7C64D" transform="translate(163,139)"/>
<path d="M0 0 C-2.12121657 2.33333823 -4.01594365 3.9148886 -7 5 C-9.25 4.625 -9.25 4.625 -11 4 C-9.71264403 1.42528807 -8.71510189 1.29583343 -6.0625 0.3125 C-5.35222656 0.04050781 -4.64195312 -0.23148437 -3.91015625 -0.51171875 C-2 -1 -2 -1 0 0 Z " fill="#F9F1DF" transform="translate(306,379)"/>
<path d="M0 0 C0 0.66 0 1.32 0 2 C-3.465 3.485 -3.465 3.485 -7 5 C-6.6875 3.0625 -6.6875 3.0625 -6 1 C-3 0 -3 0 0 0 Z " fill="#E9E2D9" transform="translate(312,376)"/>
</svg>
